<svg xmlns="http://www.w3.org/2000/svg" viewBox="0 0 608.82 688.23"><defs><style>.cls-1{fill:#083884;}.cls-2{fill:#f368e0;}.cls-3,.cls-7{fill:#fff;}.cls-4,.cls-6,.cls-8{fill:none;}.cls-4,.cls-6,.cls-7,.cls-8{stroke:#000;}.cls-4{stroke-linecap:round;stroke-linejoin:round;stroke-width:2px;}.cls-5{fill:#df2326;}.cls-6,.cls-7,.cls-8{stroke-miterlimit:10;}.cls-6,.cls-7{stroke-width:1.04px;}.cls-8{stroke-width:1.3px;}</style></defs><g id="Layer_2" data-name="Layer 2"><g id="Layer_1-2" data-name="Layer 1"><circle class="cls-1" cx="265" cy="357.12" r="265"/><path class="cls-2" d="M207.57,424.77c-3.34.32-6.73.48-10.15.48a108.58,108.58,0,0,1-83.71-177.72A39,39,0,0,1,130,246.2c-13.55,17.33-24.25,41.09-22.6,72.29C107.38,318.49,104.58,403,207.57,424.77Z"/><path class="cls-3" d="M197.42,208.11a108.29,108.29,0,0,0-25,2.91c-9.26,4.9-27.54,16.19-42.39,35.18-13.55,17.33-24.25,41.09-22.6,72.29,0,0-2.8,84.48,100.19,106.28a108.57,108.57,0,0,0-10.15-216.66Zm40.41,141.48s-4.41-15.5,13-17.53c0,0-6.73-15.75,12.6-18C263.47,314,274.41,347.56,237.83,349.59Z"/><path class="cls-2" d="M172.37,211c-9.26,4.9-27.54,16.19-42.39,35.18a39,39,0,0,0-16.27,1.33A108.55,108.55,0,0,1,172.37,211Z"/><path class="cls-4" d="M187.94,366.08s-10.78-14.2,0-22.48c0,0,6.87-4.61,16.53,0"/><path class="cls-4" d="M257.84,265.38a14.15,14.15,0,0,0-15.87,0c-12.65,10.12,0,22.09,0,22.09"/><path class="cls-4" d="M250.87,248.93s7.87,5.27,3.16,14.63"/><path class="cls-4" d="M262.81,249.28s3.75,11.73-6.71,15.11"/><path class="cls-4" d="M171.05,364.58s8.44,6.49,14.59-2.3"/><path class="cls-4" d="M175.14,376.55s12,.1,12.18-11.37"/><path class="cls-5" d="M237.83,349.59s-4.41-15.5,13-17.53c0,0-6.73-15.75,12.6-18C263.47,314,274.41,347.56,237.83,349.59Z"/><path class="cls-4" d="M128.26,281.51c10.8,4.77,17.65-7.52,11.43-14.18-11.22-12-26.72,5-20.57,17.56,4.37,9,15.95,11.79,24.59,7.53a22.59,22.59,0,0,0,11.76-15.84c1.45-7.35-.3-16.1-5.89-21.25-19.13-17.63-47.75-6.92-64,9.06"/><line class="cls-6" x1="293.25" y1="395.85" x2="289.23" y2="392.83"/><line class="cls-6" x1="305.99" y1="379.69" x2="300.28" y2="375.41"/><path class="cls-7" d="M432.62,391.56c-11.08-.2-18.51,6-22.89,11.48-.45-.47-.9-.93-1.35-1.37a102.59,102.59,0,0,0-10.9-9c6-8.6,16.57-19.18,31.21-15.84a15.24,15.24,0,0,0,3.93,14.71Z"/><path class="cls-6" d="M287.59,431.79l.21.63Z"/><path class="cls-7" d="M458.62,380.81a15.23,15.23,0,1,1-15.23-15.23A15.22,15.22,0,0,1,458.62,380.81Z"/><path class="cls-7" d="M355.27,341.55a11,11,0,0,1-11,11,10.41,10.41,0,0,1-1.48-.1,11,11,0,1,1,12.52-10.93Z"/><path class="cls-7" d="M357.39,367.86c-3.73-2.06-6-3.28-6-3.28a30.52,30.52,0,0,0-6.72-2.77,29.72,29.72,0,0,0-1.88-9.33,10.41,10.41,0,0,0,1.48.1,11,11,0,0,0,10.18-6.76A34.89,34.89,0,0,1,357.39,367.86Z"/><path class="cls-8" d="M254,.65c189.69,0,343.47,153.77,343.47,343.47S443.69,687.58,254,687.58"/><path class="cls-8" d="M595.41,306.32s27.28,16.19,2.06,31.8"/><path class="cls-2" d="M294.58,419.66c-2.64-.57-5.93.23-7.62,6.49a12.91,12.91,0,0,0,.43,5c-4.19-14.42-.07-31.65,1.84-38.27C289.23,392.83,289.26,413.4,294.58,419.66Z"/><path class="cls-2" d="M397.47,484.29a50,50,0,0,1-44.08,2.7s-41.16-25.18-58.63-42.84a29.52,29.52,0,0,1-7-11.73c2,5.57,8,13.46,26.09,17.61a32.06,32.06,0,0,0,8.09-.32C322.6,450.45,348.27,480.54,397.47,484.29Z"/><path class="cls-3" d="M425.24,443.8c-.86,10.13-5.32,20.75-15.29,30.79a59.22,59.22,0,0,1-12.47,9.7h0c-49.2-3.75-74.87-33.84-75.49-34.58,9.51-1.51,24.32-7.83,26.73-32.26,0,0-.14-20.17-18.26-26.77a11,11,0,1,0-5.22,10.58,16.3,16.3,0,0,1,8.41,9.79c2.45,8.54,4.39,23.59-19.39,25.57,0,0-11.12-1.72-15.73-15.08a10.39,10.39,0,0,0-3.94-1.88c-5.32-6.26-5.35-26.83-5.35-26.83l-8.58-6.44a109,109,0,0,0,11.68-16.95l7.95,6c18.1-17.66,35.26-16.27,44.35-13.6a30.52,30.52,0,0,1,6.72,2.77s2.31,1.22,6,3.28c6.32,3.49,16.71,9.4,26.89,15.89,4.58,2.92,9.11,6,13.2,8.94a102.59,102.59,0,0,1,10.9,9c.45.44.9.9,1.35,1.37a59.21,59.21,0,0,1,13,21.26c-41-5.32-46.13,43.63-46.13,43.63s4.13,20.34,18,3.77C394.54,471.7,392.79,437.29,425.24,443.8Z"/><path class="cls-7" d="M428.17,436.62a15.11,15.11,0,0,0,2.67,8.61c-2-.6-3.84-1.08-5.6-1.43-32.45-6.51-30.7,27.9-30.7,27.9-13.85,16.57-18-3.77-18-3.77S381.7,419,422.69,424.3a62.21,62.21,0,0,1,9.48,2.05A15.09,15.09,0,0,0,428.17,436.62Z"/><path class="cls-7" d="M458.62,436.62a15.22,15.22,0,1,1-15.23-15.22A15.23,15.23,0,0,1,458.62,436.62Z"/><path class="cls-7" d="M330.51,391.84a11,11,0,1,1-.06-1.16A11,11,0,0,1,330.51,391.84Z"/><path class="cls-7" d="M348.43,417.46a31.79,31.79,0,0,1-.18,4.17C346.72,435.2,335.6,447.57,322,449.7c-8.45,1.32-17.18-1.4-24.32-6.12-4-2.62-7.61-6-9.56-10.29a12.62,12.62,0,0,1-1.15-7,8.15,8.15,0,0,1,3.69-5.84,6.1,6.1,0,0,1,6.72.27c2.33,1.86,3.37,5.54,5,8,1.86,2.81,4.19,5.44,7.33,6.8,7,3,17.08-.41,21.82-6.07a16.54,16.54,0,0,0,3.57-11.3A23.24,23.24,0,0,0,332,407.66c-.59-1-5.4-7.24-6.78-6.4a11.06,11.06,0,0,0,5.22-10.58c.12,1.09,3.89,2,4.7,2.45C343.7,397.53,348.18,407.93,348.43,417.46Z"/><path class="cls-6" d="M370.25,407.6s47.45-114.83,165.29-49.25"/><line class="cls-6" x1="397.48" y1="484.29" x2="397.47" y2="484.29"/><path class="cls-6" d="M322,449.71h0"/></g></g></svg>