<svg xmlns="http://www.w3.org/2000/svg" xmlns:xlink="http://www.w3.org/1999/xlink" viewBox="0 0 7329.83 3726.73"><defs><style>.cls-1,.cls-12,.cls-4,.cls-6,.cls-7,.cls-8{fill:none;}.cls-2{clip-path:url(#clip-path);}.cls-3{fill:#fff;}.cls-12,.cls-4,.cls-6,.cls-8{stroke:#231078;}.cls-12,.cls-4,.cls-6,.cls-7,.cls-8{stroke-miterlimit:10;}.cls-4{stroke-width:6.25px;}.cls-5{fill:#ef36b0;}.cls-6,.cls-7{stroke-width:3.38px;}.cls-7{stroke:#fff;}.cls-8{stroke-width:4.7px;}.cls-9{fill:#78d87a;}.cls-10{fill:#fee7f8;}.cls-11{fill:#fab7e2;}.cls-12{stroke-width:4.32px;}</style><clipPath id="clip-path" transform="translate(478.43 273.4)"><rect class="cls-1" width="6347.55" height="3453.33"/></clipPath></defs><g id="Layer_2" data-name="Layer 2"><g id="Layer_1-2" data-name="Layer 1"><g class="cls-2"><rect class="cls-3" x="478.43" y="273.4" width="6347.55" height="3453.33"/><path class="cls-4" d="M-388.44,999.29S5.79,1154,271.91,778.58,313.64,166.7,154.06,202.65c0,0-170.25,124.57,86.61,193.12s745.7-155.24,540.67-668" transform="translate(478.43 273.4)"/><path class="cls-5" d="M5573.53,2549.82s-31.39,25.76,8.07,43.37,133.63,0,133.63,0l47.53-8.72s36-103.82,23.62-151.67c0,0-9.74-58.72-43.55-38.55l-51-70.6s-93.15,23.14-133.49,73-49.84,103.24-49.84,103.24Z" transform="translate(478.43 273.4)"/><path class="cls-6" d="M5706.14,2594.73s33.44,33.86,78.2,21.07c0,0,14.63-32-10.39-68.4" transform="translate(478.43 273.4)"/><path class="cls-7" d="M5573.53,2549.82c17.55-8.07,36.07-14.48,55.19-17.56,15.87-2.56,40.74-5.45,54.82,4.43,3.58,2.52,6.31,6.56,6.36,10.94.09,7.5-7.14,10.33-13.43,11-25.07,2.57-49.74-12.78-60.23-35.39-2.66-5.74-4-12.34-2.38-18.46a24.45,24.45,0,0,1,9.79-13.52c13.63-9.57,32-7.29,46.44-.78,25.72,11.62,45.16,34.63,63.08,55.64a455.48,455.48,0,0,1,29.59,38.38" transform="translate(478.43 273.4)"/><path class="cls-7" d="M5672.78,2492.09s-35.95-62.85,13-61.5,59.68,45.21,50.29,61.5-43.52-30.23,6.75-97.84" transform="translate(478.43 273.4)"/><path class="cls-7" d="M5600.79,2412.93s-56.81,49.55-24.44,55.49,94.09-92.48,83.71-108.34c0,0-72.48-4-120,97.77s103.34-4,120-32.37c0,0,37-40.1,31.74-101.83" transform="translate(478.43 273.4)"/><path class="cls-6" d="M5784.34,2615.8s207.21,310.15,217,477.67" transform="translate(478.43 273.4)"/><path class="cls-6" d="M5892.83,2798.65s-9.82-185.19,67.35-279.58" transform="translate(478.43 273.4)"/><circle class="cls-6" cx="6445.86" cy="2777.24" r="20.46"/><path class="cls-6" d="M5932.76,2878S5794,2730,5657.41,2798.65c0,0-50.7,47.34,4.32,79.3S5864.36,2868.24,5932.76,2878Z" transform="translate(478.43 273.4)"/><path class="cls-6" d="M5932.76,2878s-160.84-80.15-296.66-42.59" transform="translate(478.43 273.4)"/><path class="cls-8" d="M6221.94-165.66s-25.65,245.28-354.41,565.35L5710.88,525.46S5576.32,543.8,5550,605.69c0,0-9.23,75.64,89.37,6.88,43.13-30.09,65.35-64.74,76.7-94.21" transform="translate(478.43 273.4)"/><path class="cls-9" d="M5847.72,415.59s-176.2-55.28-193.22,6.43S5762.19,470.87,5847.72,415.59Z" transform="translate(478.43 273.4)"/><path class="cls-9" d="M5857.89,407.43s-91.48,93.88-81.88,164.76,68.67,12.56,76.06-57.59S5850.42,466.4,5857.89,407.43Z" transform="translate(478.43 273.4)"/><path class="cls-9" d="M5966.87,295.31s-94-17.85-164.34,5.72-35.49,79.21,28.63,65.06S5966.87,295.31,5966.87,295.31Z" transform="translate(478.43 273.4)"/><path class="cls-9" d="M6041.35,203.92s-98.4,130.89-79,195.65S6057.4,392.2,6041.35,203.92Z" transform="translate(478.43 273.4)"/><path class="cls-9" d="M6068.05,167.22s-158.41-18.61-176,40.26S5973,258.68,6068.05,167.22Z" transform="translate(478.43 273.4)"/><path class="cls-9" d="M6121.7,84.3s-59.11,137-33.51,175.06,60.71,13.89,65.09-43.89S6121.7,84.3,6121.7,84.3Z" transform="translate(478.43 273.4)"/><path class="cls-9" d="M6167.76-2.46s-136.12-1.44-161.47,46.8,30.3,52.94,61.76,40S6167.76-2.46,6167.76-2.46Z" transform="translate(478.43 273.4)"/><path class="cls-9" d="M6193.59-63.35s-32.91,129.4-14.19,160,71,38.35,65.09-80C6244.49,16.65,6253.19-36.84,6193.59-63.35Z" transform="translate(478.43 273.4)"/><circle class="cls-10" cx="989.89" cy="2133.34" r="54.3"/><circle class="cls-10" cx="4980.92" cy="3259.85" r="54.3"/><circle class="cls-10" cx="6336.32" cy="1304.27" r="54.3"/><circle class="cls-10" cx="2363.36" cy="1210.95" r="54.3"/><circle class="cls-11" cx="2162.93" cy="273.4" r="183.89"/><circle class="cls-11" cx="6939.74" cy="2133.34" r="390.09"/><circle class="cls-11" cx="390.09" cy="1929.74" r="390.09"/><path class="cls-12" d="M6008.42,3095.32s112-196.84,37.79-611.64L5996.53,2306s-90.64-85.65-77.22-146c0,0,33.56-61.41,70.39,42.67,16.11,45.53,14.17,83.28,6.88,111.35" transform="translate(478.43 273.4)"/><path class="cls-9" d="M6039.93,2461.22s-161.11-53-140.81-108.15S6005.64,2374.2,6039.93,2461.22Z" transform="translate(478.43 273.4)"/><path class="cls-9" d="M6043.15,2472.75s-18.08-119,27-166.8,58,27.36,26,83.68S6069.12,2424.74,6043.15,2472.75Z" transform="translate(478.43 273.4)"/><path class="cls-9" d="M6064.55,2614.75s-79.7-36.93-119.63-92.17,15.87-78.12,56.17-33.26S6064.55,2614.75,6064.55,2614.75Z" transform="translate(478.43 273.4)"/><path class="cls-9" d="M6071.27,2722.81s-3.45-150.35,45.69-188.31S6184,2590.83,6071.27,2722.81Z" transform="translate(478.43 273.4)"/><path class="cls-9" d="M6071.57,2764.48s-128.21-70.82-109.85-124.17S6049.5,2645.35,6071.57,2764.48Z" transform="translate(478.43 273.4)"/><path class="cls-9" d="M6067.28,2855.09s29.16-133.91,68.61-148.61,52.75,22.09,25.12,67.58S6067.28,2855.09,6067.28,2855.09Z" transform="translate(478.43 273.4)"/><path class="cls-9" d="M6055.26,2944.49s-102.39-71.73-95.51-121.3,50.93-23.31,67.47,3.2S6055.26,2944.49,6055.26,2944.49Z" transform="translate(478.43 273.4)"/><path class="cls-9" d="M6042,3003.77s44.64-114.21,75-127,73.53,9.35,5.81,94.53C6122.76,2971.27,6100.65,3015.86,6042,3003.77Z" transform="translate(478.43 273.4)"/></g></g></g></svg>