<svg xmlns="http://www.w3.org/2000/svg" viewBox="0 0 986.67 492.38"><defs><style>.cls-1{fill:#e87c63;}.cls-2{fill:#734db1;}.cls-3{fill:#7767b7;}.cls-10,.cls-4{fill:none;}.cls-10,.cls-4,.cls-6{stroke:#000;}.cls-4,.cls-6{stroke-miterlimit:10;stroke-width:1.78px;}.cls-5,.cls-6{fill:#24a360;}.cls-7{fill:#f05d3d;}.cls-8{fill:#fbbca0;}.cls-9{fill:#000003;}.cls-10{stroke-linecap:round;stroke-linejoin:round;stroke-width:2px;}.cls-11{fill:#fff;}.cls-12{fill:#4447d5;}.cls-13{fill:#f7472a;}</style></defs><g id="Layer_2" data-name="Layer 2"><g id="Layer_1-2" data-name="Layer 1"><path class="cls-1" d="M910.77,337.85s-2.24,11.48-14,13.33a22.31,22.31,0,0,1-5.44.18l-9.24,20,5.37,15.85s-38.59,51.44-41.38,2l7.48-23.38s-23.51,5-22.29-17.86c.41-7.8,1.09-15.13,1.78-21.4,1.35-12.21,2.81-20.46,2.81-20.46s23.35,3.24,29.15-7.14c0,0,9.94,10.68,24.58-1.23,0,0-7.32,17.1-2.74,21.06s10.69-4,10.69-4l-2.37,16.81-.32,2.31s.5-1.17,1.35-2.77c2.53-4.74,8.11-13.15,12.78-5.1a15.53,15.53,0,0,1,1.16,3.5A30.15,30.15,0,0,1,910.77,337.85Z"/><path class="cls-2" d="M233.86,169.56l-12.37,89.71H141.86l-14.73-83.56c15.94-7.86,22.32-11.25,22.32-11.25,0,7-.82,14.15.64,21s3.27,13.53,6.81,19.5c4.76,8,13.74,15.22,23.6,13.14,10.21-2.16,17-11.74,22-20.13,2.54-4.26,5-8.74,5.84-13.63,1.32-7.32-1.88-14.49-3.53-21.51C204.84,162.8,217,165,233.86,169.56Z"/><path class="cls-3" d="M376.53,280.7a150.83,150.83,0,0,0-16.43,20.23L314.79,365.4l-33.4-33,4.39-22.28-16.94-44.42h0l-12.6-89.41c20.87,6.91,43.59,16.6,58.91,29.2C315.15,205.46,353.4,225.12,376.53,280.7Z"/><path class="cls-4" d="M381.8,294.91c-1.63-5-3.41-9.71-5.27-14.21"/><path class="cls-5" d="M268.84,265.67l-2.45-6.4h-44.9l12.37-89.71c6.85,1.83,14.47,4.05,22.36,6.7h0Z"/><path class="cls-2" d="M79.44,306.23l12.85,67.06-8.84,67.78L0,439l23.46-178s8.61-39.85,58.48-63.56c5.76-2.74,14.22-6.79,20.69-9.9L90.79,267.53Z"/><polygon class="cls-5" points="285.78 310.1 281.39 332.38 259.94 441.07 105.28 441.07 92.29 373.29 79.44 306.23 90.79 267.53 87.52 289.54 147.19 289.54 141.86 259.27 221.49 259.27 217.32 289.54 272.2 289.54 268.85 265.68 285.78 310.1"/><path class="cls-6" d="M141.86,259.27H93.21l-2.42,8.26-3.27,22h59.67Zm-27,19.19a5.26,5.26,0,1,1,5.26-5.26A5.27,5.27,0,0,1,114.86,278.46Z"/><path class="cls-6" d="M268.84,265.68h0l-2.45-6.4h-44.9l-4.17,30.27H272.2Zm-23.12,12.78A5.26,5.26,0,1,1,251,273.2,5.25,5.25,0,0,1,245.72,278.46Z"/><path class="cls-5" d="M141.86,259.27H93.21l-2.42,8.26,11.84-79.91h0l.62-.3,2.24-1.09c.68-.32,1.33-.64,2-1,.22-.09.41-.18.61-.28,7.46-3.61,13.77-6.69,19-9.28Z"/><path class="cls-6" d="M120.12,273.2a5.26,5.26,0,1,1-5.26-5.26A5.25,5.25,0,0,1,120.12,273.2Z"/><path class="cls-6" d="M251,273.2a5.26,5.26,0,1,1-5.26-5.26A5.27,5.27,0,0,1,251,273.2Z"/><path class="cls-3" d="M426.28,390.66c-16.18,12.87-29.38,19-39.52,21.76L378,408.93l37.67-50.35Z"/><path class="cls-7" d="M233.33,51.89c-6,11.77-18.25,4.67-21.08,2.82h0c-.37-.24-.57-.39-.57-.39-15.94,13.35-48.17,1.73-48.17,1.73,15.95,25.82-5.58,37.89-5.58,37.89a39.63,39.63,0,0,0-9.08-6.66S136.56,93,135.07,103.93c-11.66-2.36-18.84-10.86-23.48-21.7-5.3-12.42,11.7-22.2,11.7-22.2-6.1-6.58-4.66-15.09-4.66-15.09,3.22-17.65,24.08-16.69,24.08-16.69-10.27-8.66-1.92-17.33-1.92-17.33,15.08-18.77,44.83-7.65,44.83-7.65,31.78-10.73,36.74,18,36.74,18,14,4,11,14.5,11,14.5S240.1,38.54,233.33,51.89Z"/><path class="cls-8" d="M207.63,153.63l-2.79,9.17c1.65,7,4.85,14.19,3.53,21.51-.87,4.89-3.3,9.37-5.84,13.63-5,8.39-11.82,18-22,20.13-9.86,2.08-18.84-5.11-23.6-13.14-3.54-6-5.39-12.76-6.81-19.5s-.64-14-.64-21l5.74-37.22s-17.26-3.33-20-17.87a16.18,16.18,0,0,1-.14-5.44c1.49-11,13.76-16.65,13.76-16.65a39.63,39.63,0,0,1,9.08,6.66s21.53-12.07,5.58-37.89c0,0,32.23,11.62,48.17-1.73,0,0,.2.15.57.39h0c6.58,11.31,15.21,30.58,14.81,53.45C227.06,108.16,234.75,147.54,207.63,153.63Z"/><path class="cls-9" d="M397.18,477.63c-3.29,11-10.58,7.24-10.58,7.24l-.44-.2a75.38,75.38,0,0,1-4.52-9.58l5.51-.3C389.25,474.68,392.82,475.85,397.18,477.63Z"/><path class="cls-9" d="M494.46,106.23c.64,21.13-28,45.71-28,45.71s-20.33-14.68-26.2,4.91,11.43,21.63,17.49,20.83,4.29,4.6,4.29,4.6l-10.17,49.05-59.74-6.23c-4.11-14.66,7.39-25.22,7.39-25.22,14.21-6.63,17.19-19.39,17.19-19.39-3.78-23.34,2.06-47.78,2.06-47.78C429,104,455.05,105.28,455.05,105.28Z"/><path class="cls-1" d="M511.69,204.4c11.82-7,11.82-30.36,11.82-30.36,1.68-14,.56-25.3-2-34.34-7.43-26-27-33.47-27-33.47.64,21.13-28,45.71-28,45.71s-20.33-14.68-26.2,4.91,11.43,21.63,17.49,20.83,4.29,4.6,4.29,4.6l-10.17,49.05-2.38,11.46s38.16,47.28,58.18,40.19,4.14-40.19,4.14-40.19L507.37,232,501,216.77C509.61,215.19,511.69,204.4,511.69,204.4ZM480.81,174l26.68,12.85S482,198,480.81,174Z"/><path class="cls-9" d="M540.59,235.72,507.37,232,501,216.77c8.59-1.58,10.67-12.37,10.67-12.37,11.82-7,11.82-30.36,11.82-30.36,1.68-14,.56-25.3-2-34.34C530.86,145.49,557.35,168.39,540.59,235.72Z"/><path class="cls-10" d="M498.08,136.75s-3.2-2.63-12.61-1.69"/><path class="cls-10" d="M507.49,139.2s2.26-5.85,11.11-3.39"/><path class="cls-10" d="M501.28,158l4.14,16.49s-6.65,1.57-10.94-2.94"/><path class="cls-11" d="M507.49,186.89S482,198,480.81,174Z"/><path class="cls-1" d="M535.82,244.62c4.34-6.63,12.59-17.15,22.42-19.91,0,0,12.6,4.54-1.76,17.8"/><path class="cls-1" d="M574.54,273.36a19.5,19.5,0,0,1-2.51,3.29c-3.43,3.61-9.86,7.43-16.39-4.67,0,0-4.49-13.26-5-23.41,0-.46,0-.93,0-1.37,4.19-4,5.83-4.69,5.83-4.69s15.41-6,18,5.44a2,2,0,0,1,.07.26,55.46,55.46,0,0,1,1.05,9.92A83.34,83.34,0,0,1,574.54,273.36Z"/><path class="cls-1" d="M868.2,224.52s-1.37,10.36-9,13.65c0,0,1.73,1.72-4.83,7.77s-36.46,6.73-36.46,6.73L802.7,258.2l-12.11,21.22-9.1,16c-11.84-1.35-29.06-9.67-37-44.39,0,0,47.14-35.58,73.92-30.78,0,0,33.21-16.39,56.4-10.79C874.84,209.43,884.3,217.69,868.2,224.52Z"/><path class="cls-9" d="M793.83,294.46a31.58,31.58,0,0,1-12.34.93l9.1-16C802.14,286.09,793.83,294.46,793.83,294.46Z"/><path class="cls-12" d="M939.79,409.27l-.64,1.26-15.59,30.63H808.65l2.4-9-34.82-2.12-1.69-.1c22.36-45.31,71.58-40.83,71.58-40.83,2.79,49.48,41.38-2,41.38-2Z"/><path class="cls-4" d="M952.84,416.88a36.86,36.86,0,0,0-3.27-2.28"/><path class="cls-4" d="M949.57,414.6c2.63,7.2,4.83,11.89,4.83,11.89"/><path class="cls-1" d="M811.05,432.2l-2.4,9H768.48a63.31,63.31,0,0,1,7.75-11.08Z"/><path class="cls-13" d="M919.33,324.06a22.59,22.59,0,0,1-1,7.73,32.37,32.37,0,0,0-8.16-2.26A15.53,15.53,0,0,0,909,326c-4.67-8-10.25.36-12.78,5.1-.35.14-.69.3-1,.46l2.37-16.81s-6.12,7.94-10.69,4,2.74-21.06,2.74-21.06c-14.64,11.91-24.58,1.23-24.58,1.23-5.8,10.38-29.15,7.14-29.15,7.14s-1.46,8.25-2.81,20.46c-22.64,1.88-37.24-21.7-28.23-35.05,9.46-14,32.82-10,32.82-10-11.24-7.08-5.11-18.19-5.11-18.19s7.77-8.81,32.78-6.72S900.81,284,900.81,284c2.9,15.07,5.67,11.71,5.67,11.71,10.54-17.61,21.78,2.49,21.78,2.49C940.31,328.87,919.33,324.06,919.33,324.06Z"/><path class="cls-1" d="M975.18,441.16c-13.28-.23-51.62,0-51.62,0l15.59-30.63a29.05,29.05,0,0,1,10.42,4.07c-3.48-9.47-7.72-23.28-8.73-36.45l-18.73-21.24s-13.44,2.31-25.3-5.73c11.72-1.85,14-13.33,14-13.33a30.15,30.15,0,0,0-.59-8.32,32.37,32.37,0,0,1,8.16,2.26,34.24,34.24,0,0,1,4.87,2.59c19.27,12.46,21.24,14.85,21.24,14.85s25.51,24.92,33.43,50.23c0,0,8.5,14.43,8.7,28.28C986.58,427.74,988.44,441.37,975.18,441.16Z"/><path class="cls-10" d="M851.58,344.12c-6.36,0-9.67-1.27-9.67-1.27l7.38-12.47"/><path class="cls-10" d="M840.2,351.36s3.17,7.91,12.27,1.78"/><path class="cls-10" d="M859.21,313.75s6.83-3.9,10,2.37"/><path class="cls-10" d="M850.06,311.14s-4.52-3-8.66-1.25"/><path class="cls-1" d="M590.41,265.22c.11,8.85-2.12,15.29-5.12,18.22A5.14,5.14,0,0,1,580,285c-3.17-1-6-4.83-8-8.39a19.5,19.5,0,0,0,2.51-3.29,83.34,83.34,0,0,0,1.05-15.23,55.46,55.46,0,0,0-1.05-9.92,2,2,0,0,0-.07-.26c5.06-2.1,13.11-3.31,15.16,8.58a4.82,4.82,0,0,1,.1.57A55.55,55.55,0,0,1,590.41,265.22Z"/><path class="cls-1" d="M604.47,268.88c0,1.18-.14,2.33-.28,3.45-1.92,15.25-12.5,24-18.9,11.11,3-2.93,5.23-9.37,5.12-18.22a55.55,55.55,0,0,0-.68-8.12,4.82,4.82,0,0,0-.1-.57C594.27,255.41,605,254.38,604.47,268.88Z"/><path class="cls-4" d="M579.68,341.78s-7,6.51-3.85,29.74"/><path class="cls-11" d="M793.83,294.46l-32.66,54.68C728,411.39,691.58,418,691.58,418c-50.71-11.89-115.75-46.51-115.75-46.51l-8.05,69.55H456.26c5-2.67,9.41-7.06,2.69-13-5.35-4.75-13.94-5.15-21.71-4.19l-11-33.19-10.61-32.08L378,408.93l8.76,3.49,18.13,7.18a46.16,46.16,0,0,0-7.76,4.37c-10.4,7.06-26.31,23.11-15.49,51.12a75.38,75.38,0,0,0,4.52,9.58c-15.61-6.66-52.6,1.25-52.6,1.25A53.69,53.69,0,0,1,290,489.29C246.8,478.15,272.2,426,272.2,426l42.59-60.61,45.31-64.47a150.83,150.83,0,0,1,16.43-20.23c34.5-35.49,73-37.91,73-37.91s38.16,47.28,58.18,40.19,4.14-40.19,4.14-40.19c7.36-.75,15.57.07,24,1.83h0c4.59,1,9.23,2.19,13.8,3.61l1.06.34c.47,10.15,5,23.41,5,23.41,6.53,12.1,13,8.28,16.39,4.67,2,3.56,4.78,7.4,8,8.39a5.14,5.14,0,0,0,5.31-1.6c6.4,12.85,17,4.14,18.9-11.11,23.26,11.27,83.93,61.43,83.93,61.43,13.17-45.39,56.4-82.76,56.4-82.76,7.91,34.72,25.13,43,37,44.39A31.58,31.58,0,0,0,793.83,294.46Z"/><path class="cls-1" d="M467.53,466.06s-2.72,14-11.28,11.13c0,0-3.76,8.94-10.62,7.57,0,0-1.83,9.14-16,5.74-9.71-2.31-22.95-9-32.46-12.87-4.36-1.78-7.93-2.95-10-2.84l-5.51.3c-10.82-28,5.09-44.06,15.49-51.12a50.1,50.1,0,0,1,5.54-1.55L420,428a82.78,82.78,0,0,1,17.26-4.19c7.77-1,16.36-.56,21.71,4.19,6.72,6,2.31,10.36-2.69,13a39.54,39.54,0,0,1-7.69,3s28.77,7.65,27.85,12.94C476.42,457,479.55,464.55,467.53,466.06Z"/><polyline class="cls-4" points="134.91 441.16 134.91 371.52 221.49 365.4 221.49 441.07"/><polygon class="cls-1" points="556.48 242.51 549.62 248.23 535.82 244.62 556.48 242.51"/><ellipse cx="186.42" cy="83.81" rx="3.81" ry="7.62"/><ellipse cx="211.51" cy="78.86" rx="3.81" ry="7.62" transform="translate(-4.25 12.51) rotate(-3.35)"/><ellipse cx="488.46" cy="154.14" rx="3.81" ry="7.62"/><ellipse cx="513.56" cy="154.14" rx="3.81" ry="7.62" transform="translate(-8.14 30.32) rotate(-3.35)"/><ellipse cx="846.65" cy="320.76" rx="3.81" ry="7.62"/><ellipse cx="863.04" cy="323.73" rx="3.81" ry="7.62" transform="translate(-17.47 51.06) rotate(-3.35)"/><polyline class="cls-10" points="199.66 94.45 211.51 105.44 202.9 113.41"/><path class="cls-10" d="M196.82,126.11s7.33,9.26,12.72,1.94"/><path class="cls-10" d="M146.08,98.83s-4.74,8.84,7.11,13.15"/><path class="cls-10" d="M178.06,75.36s1.63-3.54,8.36-4.1"/><path class="cls-10" d="M201.72,70.52a8.69,8.69,0,0,1,11.36-3.73"/><path class="cls-10" d="M904.77,331.79s0,11.4-10.46,12.33"/></g></g></svg>