<svg xmlns="http://www.w3.org/2000/svg" viewBox="0 0 806.69 706.29"><defs><style>.cls-1{fill:#fbb48a;}.cls-2,.cls-3,.cls-9{fill:none;}.cls-2,.cls-3{stroke:#231078;}.cls-2{stroke-linecap:round;stroke-linejoin:round;stroke-width:2px;}.cls-13,.cls-3,.cls-9{stroke-miterlimit:10;}.cls-4{fill:#da7cb9;}.cls-5{fill:#fab7e2;}.cls-6{fill:#fff;}.cls-7{fill:#090c3f;}.cls-8{fill:#ef36b0;}.cls-9{stroke:#fff;}.cls-10{fill:#3b2673;}.cls-11{fill:#78d87a;}.cls-12{fill:#4db84b;}.cls-13{fill:#945e83;stroke:#000;}</style></defs><g id="Layer_2" data-name="Layer 2"><g id="Layer_1-2" data-name="Layer 1"><path class="cls-1" d="M490.39,356.91s-30.55,65.35-79.65,39.89c0,0-7.87-12-1.27-29.22h0l7.31-3.22-.67-9.5a27.21,27.21,0,0,1-7.3,1.5c-45.81,9-51.42-95.67-51.42-95.67S372.59,278,406.73,271c0,0,18.89-9.06,26.9,4.39,0,0,.68,3.48,6.29-12.44,0,0,10.05-16.32,21.14,1.17,0,0,10.05,15.14-6.78,29.63l20.78,60.92,8.08,1.18Z"/><path class="cls-2" d="M416.12,354.85c8.49-2.8,22.49-10.88,31.41-34.09"/><path class="cls-3" d="M333.82,477.08c-.25,1.12-.44,2.21-.57,3.26"/><path class="cls-4" d="M536,666.05c-1.74,1.38-3.58,2.7-5.5,4-33.15,21.74-90.78,25.32-90.78,25.32-28.17,1.65-50.38-.4-67.58-4,6.2-.41,12-.92,17.19-1.38a61.7,61.7,0,0,0,17.71-5.43l8.73-4.33c14.35,7.44,27-5.66,27-5.66,35.24-2,68.51-21,88.85-35.31Z"/><line class="cls-3" x1="531.65" y1="639.25" x2="530.71" y2="633.45"/><path class="cls-3" d="M333.25,513.25s-.85.67-2.31,2"/><path class="cls-3" d="M393.49,511.33l-.1-.05,0,0Z"/><path class="cls-5" d="M563.74,501.19s.81,95.33-11.76,122.11a213.39,213.39,0,0,1-20.33,16c-20.34,14.28-53.61,33.26-88.85,35.31,0,0-12.67,13.1-27,5.66l-14.1-32-8.87,4.43.68,1.54-15.78,7s-6.61-8.33-23.27-8.85-40.09-5.55-47.21-10.24a9.49,9.49,0,0,0-3.24,1.56c-4.86-10.6-9.4-24.86-11.55-43.39-5-43.26,29.17-76.76,38.5-85,14.4,11.14,40.07,12.37,47.74,10.07a13.34,13.34,0,0,0,1.27-.44l.55-.23a6.55,6.55,0,0,0,.92-.48l.29-.19a4.59,4.59,0,0,0,.7-.58l.11-.12.1-.12a2.18,2.18,0,0,0,.22-.31,2.49,2.49,0,0,0,.16-.33,1.43,1.43,0,0,0,.08-.22,1.5,1.5,0,0,0,.06-.29,1.53,1.53,0,0,0,0-.3,2.36,2.36,0,0,0-.07-.58,2.68,2.68,0,0,0-.1-.35,3.07,3.07,0,0,0-.14-.34,5.17,5.17,0,0,0-.39-.68,4.91,4.91,0,0,0-.4-.53l-.22-.26-.24-.26-.25-.25c-.17-.17-.35-.34-.53-.49l-.46-.4-.44-.34-.23-.17-.33-.24a24.83,24.83,0,0,0-2.15-1.39l-.27-.16-.22-.12c.27.1.95.37,1.94.72l.71.25c1.25.44,2.85,1,4.66,1.47l.91.26.75.2c.76.2,1.54.39,2.35.57l.8.18c.81.17,1.63.33,2.45.46.51.08,1,.16,1.52.22a29.71,29.71,0,0,0,5.35.26,9.44,9.44,0,0,0,1.38-.17l.15,0,.24-.07a2.55,2.55,0,0,0,.52-.21l.12-.07a1.1,1.1,0,0,0,.52-.63l0-.14a.93.93,0,0,0,0-.37.72.72,0,0,0,0-.19s0,0,0,0a2.19,2.19,0,0,0-.22-.47,7.35,7.35,0,0,0-1.29-1.56l-.59-.54c-.2-.18-.41-.36-.63-.53s-.44-.36-.68-.53a3.85,3.85,0,0,0-.34-.26c-.68-.51-1.37-1-2-1.4-.24-.17-.47-.31-.68-.45l-.94-.59-.17-.1a38,38,0,0,0,3.6,1.67l.55.21,0,0,.71.25.07,0,.66.21a16.71,16.71,0,0,0,2.44.54l.4,0a7.72,7.72,0,0,0,1.44,0l.57-.08a5.12,5.12,0,0,0,.56-.15,3.38,3.38,0,0,0,.52-.22,3.32,3.32,0,0,0,1.55-1.66c1.47-3.31-2.82-6-6.36-7.59,5.29,1.3,6.36-1.57,6.36-1.57-2.23-12-37.56-19.38-37.56-19.38a118.09,118.09,0,0,0,16-.7c10.7-2.89-.91-8-.91-8-26-3.82-41.34-1.76-50.34,2.11,1.62-7.46,5.53-16.34,8.93-23.18,3.19-6.4,5.92-11,5.92-11-1.24-48.23,59.85-74.92,60.8-75.32-1.06.45-1.8,6-2,7.09a36.15,36.15,0,0,0-.59,8.3c.42,9.18,3.94,15.22,13.09,17.81,22.77,6.46,45.24-7.76,58.74-25.27a101.63,101.63,0,0,0,11.68-18.6s48.12,12.86,60.68,28.48C551.07,385.39,565,390.85,563.74,501.19Z"/><path class="cls-2" d="M401.68,648.18s-5.13-27.42,22.3-27.42c0,0,24.09-23.07,49.21-31.27,0,0-9-13.85,7.44-13.33,0,0-5-9.77,7.39-9.51l.12-161.75"/><path class="cls-2" d="M409.48,506s21.54,19.34,78.59-6.17"/><path class="cls-2" d="M447.13,512.22s24.2,6.3,31.18,32"/><path class="cls-6" d="M340.79,584.16s4.52-23.86,21.93-19.67S340.79,630,340.79,630s-32.89-44.5-20-58.69C320.8,571.26,332.41,563.2,340.79,584.16Z"/><path class="cls-7" d="M483.14,355.85l-8.08-1.18-20.78-60.92c16.83-14.49,6.78-29.63,6.78-29.63C450,246.63,439.92,263,439.92,263c-5.61,15.92-6.29,12.44-6.29,12.44-8-13.45-26.9-4.39-26.9-4.39-34.14,7-49.33-10.32-49.33-10.32s5.61,104.71,51.42,95.67a27.21,27.21,0,0,0,7.3-1.5l.67,9.5-7.31,3.22h0c-1,.4-62,27.09-60.8,75.32,0,0-2.73,4.6-5.92,11-13.26-20.93,6.4-70.24,6.4-70.24s15.44-37.45-5.72-54.3-22-32.89-22-32.89c-4.29-36.88,29.52-48.8,29.52-48.8s13.28-58.19,88.42-38.95c0,0,46.16,10.42,38.95,72.39C478.31,281.11,498.72,329.45,483.14,355.85Z"/><path class="cls-1" d="M406.64,512.22a3.32,3.32,0,0,1-1.55,1.66,3.38,3.38,0,0,1-.52.22,5.12,5.12,0,0,1-.56.15l-.57.08a7.72,7.72,0,0,1-1.44,0l-.4,0a16.71,16.71,0,0,1-2.44-.54l-.66-.21-.07,0-.71-.25,0,0-.55-.21a36.82,36.82,0,0,1-3.61-1.68l0,0-.12-.07,0,0,.31.18.94.59.68.45c.63.41,1.32.89,2,1.4.12.08.23.17.34.26s.46.35.68.53.43.35.63.53h0l.58.53a7.35,7.35,0,0,1,1.29,1.56,3.92,3.92,0,0,1,.22.47s0,0,0,0,0,.13,0,.19a.93.93,0,0,1,0,.37l0,.14a1.1,1.1,0,0,1-.52.63l-.12.07a2.55,2.55,0,0,1-.52.21l-.24.07-.15,0a9.44,9.44,0,0,1-1.38.17,29.71,29.71,0,0,1-5.35-.26c-.51-.06-1-.14-1.52-.22-.82-.13-1.64-.29-2.45-.46l-.8-.18c-.81-.18-1.59-.37-2.35-.57l-.75-.2-.91-.26c-1.81-.51-3.41-1-4.66-1.47l-.71-.25c-1-.35-1.67-.62-1.94-.72l.22.12.27.16a24.83,24.83,0,0,1,2.15,1.39l.33.24.23.17.44.34.46.4c.18.15.36.32.53.49l.25.25.24.26.22.26a4.91,4.91,0,0,1,.4.53,5.17,5.17,0,0,1,.39.68,3.07,3.07,0,0,1,.14.34,2.68,2.68,0,0,1,.1.35,2.36,2.36,0,0,1,.07.58,1.53,1.53,0,0,1,0,.3,1.5,1.5,0,0,1-.06.29,1.43,1.43,0,0,1-.08.22,2.49,2.49,0,0,1-.16.33,2.18,2.18,0,0,1-.22.31l-.1.12-.11.12a4.59,4.59,0,0,1-.7.58l-.29.19a6.55,6.55,0,0,1-.92.48l-.55.23a13.34,13.34,0,0,1-1.27.44c-7.67,2.3-33.34,1.07-47.74-10.07-6.61-5.11-10.84-12.3-9.89-22.19,0,0-.89-10.06,12.77-15.95,9-3.87,24.31-5.93,50.34-2.11,0,0,11.61,5.12.91,8a118.09,118.09,0,0,1-16,.7s35.33,7.38,37.56,19.38c0,0-1.07,2.87-6.36,1.57C403.82,506.22,408.11,508.91,406.64,512.22Z"/><polygon class="cls-3" points="382.87 438.61 398.56 442.16 384.65 460.81 382.87 438.61"/><polygon class="cls-3" points="426.81 449.71 443.56 454.07 429.64 472.94 426.81 449.71"/><polygon class="cls-3" points="457.86 423.96 472.5 428.18 470.59 405.27 457.86 423.96"/><polygon class="cls-3" points="412.34 413.05 427.5 417.34 426.81 402.21 412.34 413.05"/><polygon class="cls-3" points="369.45 402.69 382.17 386.87 384 407.54 369.45 402.69"/><polygon class="cls-3" points="472.5 460.81 474.34 480.34 488.07 464.89 472.5 460.81"/><polygon class="cls-3" points="503.2 435.01 516.11 438.61 516.11 417.34 503.2 435.01"/><polygon class="cls-3" points="494.6 372.26 497.11 394.49 509.66 375.84 494.6 372.26"/><polygon class="cls-3" points="539.08 384.34 541.65 403.96 551.7 388.54 539.08 384.34"/><polygon class="cls-3" points="547.5 446.03 558.48 427.98 560.11 449.71 547.5 446.03"/><polygon class="cls-3" points="516.11 470.57 518.52 492.53 532.07 475.23 516.11 470.57"/><polygon class="cls-3" points="536.01 515.89 524.09 535.29 539.08 540.19 536.01 515.89"/><polygon class="cls-3" points="539.08 570.27 541.18 592.84 552.61 575.41 539.08 570.27"/><polygon class="cls-3" points="494.91 559.42 496.62 581.56 509.66 564 494.91 559.42"/><polygon class="cls-3" points="514.9 604.58 502.28 623.69 516.11 627.12 514.9 604.58"/><polygon class="cls-3" points="470.63 594.27 457.77 612.84 474.06 615.85 470.63 594.27"/><polygon class="cls-3" points="427.94 637.15 443.72 642.2 429.83 659.03 427.94 637.15"/><polygon class="cls-3" points="472.12 648.09 488.07 652.09 475.75 668.08 472.12 648.09"/><polygon class="cls-3" points="383.03 624.85 398.73 628.34 385.52 648.09 383.03 624.85"/><polyline class="cls-3" points="348.06 617.92 354.44 619.36 342.48 637.15 340.79 629.95"/><polygon class="cls-3" points="295.09 604.58 297.44 625.78 310.21 607.68 295.09 604.58"/><polygon class="cls-3" points="369.56 590.26 384.36 592.72 381.73 571.68 369.56 590.26"/><polygon class="cls-3" points="413.3 601.27 428.92 605.06 426.78 583.02 413.3 601.27"/><polygon class="cls-3" points="450.03 548.44 465.92 553.11 452.46 571.68 450.03 548.44"/><polygon class="cls-3" points="406.93 537.41 421.99 542.27 408.53 560.06 406.93 537.41"/><polygon class="cls-3" points="361.99 528.04 376.96 531.43 363.92 548.74 361.99 528.04"/><polyline class="cls-3" points="327.33 518.56 333.33 519.71 320.3 537.41 319.67 526.6"/><polyline class="cls-3" points="437.19 513.26 448.77 494.99 451.81 512.98"/><path class="cls-3" d="M445,268s8-11.34,12.81,1.67"/><path class="cls-1" d="M407.05,684.55A61.7,61.7,0,0,1,389.34,690c-5.18.46-11,1-17.19,1.38-15.19,1-32.67,1.33-48.64-1.55q-3.33-.6-6.56-1.39C293,682.51,305.5,665,305.5,665c-7.47-8.68,1.73-11.45,1.73-11.45-6.46-5.24-5.28-8.29-3.24-9.9a9.49,9.49,0,0,1,3.24-1.56c7.12,4.69,30.55,9.72,47.21,10.24s23.27,8.85,23.27,8.85l15.78-7Z"/><polyline class="cls-3" points="329.94 570.49 338.31 560.06 338.31 578.91"/><polyline class="cls-3" points="488.06 511.6 492.35 504.12 494.25 526.26 488.05 523.02"/><path class="cls-3" d="M601.74,324.78c7.22,9.2,6,19.63-4.74,25.08-2,1-4.62,1.91-6.54.64s-2.1-3.84-1.2-5.79c2.15-4.63,8.23-7.95,13.23-6.84a20.15,20.15,0,0,1,8.39,4.74c15.24,13,20.13,34.7,21.31,53.94.72,11.74.27,27.36-5.61,37.93-9.18,16.48-29.25,20.42-44.32,9.62-3.33-2.39-6.43-5.36-8-9.16-2.43-5.9-1.19-12.89,2.11-18.21,3.65-5.86,10.75-10.94,18-9.66,7,1.25,11.92,7.77,14.84,13.8,0,0,27.58,53.69-45.55,98.84"/><path class="cls-8" d="M183.83,392.46s-9.27,7.61,2.38,12.81,39.48,0,39.48,0l14-2.57s10.63-30.68,7-44.82c0,0-2.87-17.34-12.86-11.38l-15.08-20.86s-27.52,6.83-39.44,21.56a74.59,74.59,0,0,0-14.72,30.5Z"/><path class="cls-3" d="M223,405.72s9.88,10,23.1,6.23c0,0,4.32-9.46-3.07-20.21"/><path class="cls-9" d="M183.83,392.46a63.23,63.23,0,0,1,16.3-5.19c4.69-.76,12-1.61,16.2,1.31a4.15,4.15,0,0,1,1.88,3.23c0,2.22-2.11,3.05-4,3.24-7.4.76-14.69-3.77-17.79-10.45a8.23,8.23,0,0,1-.71-5.46,7.23,7.23,0,0,1,2.9-4c4-2.83,9.46-2.16,13.72-.23,7.6,3.43,13.34,10.23,18.63,16.43a133.18,133.18,0,0,1,8.74,11.35"/><path class="cls-9" d="M213.15,375.4s-10.62-18.56,3.84-18.17,17.64,13.36,14.86,18.17-12.85-8.93,2-28.9"/><path class="cls-9" d="M191.88,352s-16.78,14.63-7.22,16.39,27.8-27.32,24.73-32c0,0-21.41-1.17-35.46,28.89s30.53-1.17,35.46-9.57a41.83,41.83,0,0,0,9.38-30.08"/><path class="cls-3" d="M246.11,412s61.22,91.63,64.1,141.12"/><path class="cls-3" d="M278.16,466s-2.9-54.71,19.9-82.6"/><circle class="cls-3" cx="300.2" cy="378.87" r="6.04"/><path class="cls-3" d="M290,489.4S249,445.7,208.61,466c0,0-15,14,1.28,23.43S269.75,486.53,290,489.4Z"/><path class="cls-3" d="M290,489.4s-47.52-23.68-87.64-12.58"/><path class="cls-3" d="M304.43,562.78s-12.4-33.41-47.84-22.53c0,0-11.93,10.84-.91,21.53s27.16,1.45,25.42-10.52-18.78-51.83-67.85-42.11a23.9,23.9,0,0,0-15.55,10.53"/><circle class="cls-3" cx="194.47" cy="524.62" r="6.06"/><path class="cls-10" d="M532.08,706.21H323.51v-16.4c16,2.88,33.45,2.55,48.64,1.55,17.2,3.56,39.41,5.61,67.58,4,0,0,57.63-3.58,90.78-25.32C531.68,679.58,533.49,697.5,532.08,706.21Z"/><path class="cls-3" d="M530.51,670c-.46-3.86-.82-6.37-.82-6.37"/><path class="cls-3" d="M302.65,659.73c-90.71-23.27-166.11-135.11-166.11-135.11a109.41,109.41,0,0,0-4.14-19.54A77.39,77.39,0,0,0,126,489.23a40.79,40.79,0,0,0-5.17-7.22c-1.39-1.54-3.71-4.46-5.84-4.9a4.57,4.57,0,0,0-2.63.43c-6.32,2.63-10.64,9.77-7.61,16.43,2.2,4.84,6.1,8.87,10,12.41,10.17,9.32,17.42,14.11,22.46,16.49"/><path class="cls-3" d="M650,457s-79.43,88.36-93.15,121.9"/><path class="cls-3" d="M598.39,518s46.55-47.79,73.1-25.43c0,0,17,16.5-7.7,25.06a36.69,36.69,0,0,1-13.11,1.92c-12.15-.36-42.14-.65-57.11,4.53Z"/><path class="cls-3" d="M593.57,524s44.5-30.08,83.13-23"/><path class="cls-8" d="M650,442.84s10.72,21.55,42.23,13,20.39-25.48,20.39-25.48-.55-.89-3.38-1.27c0,0,6.3-27-16.19-35s-33.81,1.67-33.81,1.67-6.42-2.06-10.28,2.7S633.83,420.63,650,442.84Z"/><path class="cls-3" d="M650,442.84S639.28,466.93,663.82,455"/><path class="cls-3" d="M524.09,668.08s52.15-5.46,120.2-75.36L671,559.42s3.9-28.61,17.06-34.21c0,0,16.08-2,1.46,19-6.39,9.17-13.76,13.89-20,16.3"/><path class="cls-11" d="M647.67,588.51s-11.75-37.46,1.37-41.08S659.43,570.33,647.67,588.51Z"/><path class="cls-11" d="M645.94,590.68s20-19.45,35-17.41,2.67,14.6-12.25,16.17S658.47,589.09,645.94,590.68Z"/><path class="cls-11" d="M622.1,613.85s-3.79-20,1.22-34.94,16.84-7.55,13.83,6.08S622.1,613.85,622.1,613.85Z"/><path class="cls-11" d="M602.67,629.68s27.83-20.92,41.6-16.79S642.7,633.09,602.67,629.68Z"/><path class="cls-11" d="M594.87,635.36s-4-33.68,8.56-37.42S614.31,615.14,594.87,635.36Z"/><path class="cls-11" d="M577.24,646.76s29.13-12.56,37.22-7.12,2.95,12.91-9.33,13.84S577.24,646.76,577.24,646.76Z"/><path class="cls-11" d="M558.79,656.56s-.3-28.94,10-34.33,11.26,6.44,8.5,13.13S558.79,656.56,558.79,656.56Z"/><path class="cls-11" d="M545.85,662.05s27.51-7,34-3,8.15,15.1-17,13.84C562.85,672.87,551.48,674.72,545.85,662.05Z"/><path class="cls-12" d="M162.66,558.29s-25.18-35.39-12.28-50.65,15.14,22,15.14,22Z"/><path class="cls-12" d="M194.47,592.29s-28.68-35.23-13.14-50.41c0,0,14.13-10.6,15.54,12.36S194.47,592.29,194.47,592.29Z"/><path class="cls-12" d="M228.2,621.37s-30-31.7-15.47-48.55c0,0,15.1-11,17,21.3S228.2,621.37,228.2,621.37Z"/><path class="cls-12" d="M278,651.21s-36.32-30.13-22.22-48.83c0,0,12.36-8.91,17.54,17S278,651.21,278,651.21Z"/><path class="cls-12" d="M300.65,659.73S273.4,677,257.86,669.58c0,0-12.39-7-3.53-15.3S300.65,659.73,300.65,659.73Z"/><path class="cls-12" d="M253.82,638.73s-32.48,19.38-49.59,2.27c0,0-8.25-13.85,14.31-11C218.54,630,238.65,634.93,253.82,638.73Z"/><path class="cls-12" d="M217.41,612.84s-31.06,13.66-46.62-9.5c0,0-5.73-8.8,5.93-9.47S217.41,612.84,217.41,612.84Z"/><path class="cls-12" d="M167.82,564.26s-46.29,6.42-48-13.59C119.86,550.67,118.15,527.28,167.82,564.26Z"/><path class="cls-9" d="M650.68,397.07s11.58-7.19,18.73,12.7a41.33,41.33,0,0,1-2.53,12.48s.11,4,8,10.23,2.77,16-5.22,23.83"/><path class="cls-9" d="M671.27,391.26s17.06,7.48,19.12,22,1.58,35.27-19.12,44"/><path class="cls-9" d="M688.91,438.84a20.26,20.26,0,0,0,20.33-9.78"/><path class="cls-9" d="M691,418.79s14.46-.39,18.91,5.46"/><path class="cls-9" d="M687.88,405.86s12.1-.23,12.57,13.76"/><path class="cls-3" d="M451.81.22s-56.36,115.1,50.32,204.6,183.52,27.65,176.61-21.37c0,0-33.38-54.41-60.38,21.37s28.47,228.74,188.18,179.52"/><path class="cls-3" d="M726.58.22s-21,145.92,80,112.31"/><path class="cls-3" d="M0,548.44s153.71,8,176.69,157.77"/><path class="cls-2" d="M372.78,495s14.74,6.06,27.5,9.65"/><path class="cls-2" d="M370.23,501.77s13.31,6.56,23.26,9.56"/><path class="cls-2" d="M367.17,510a36.3,36.3,0,0,0,10.05,5.36"/><path class="cls-2" d="M348.67,442.9s10.13-19.61,28.06-28.59"/><polygon class="cls-13" points="415.78 680.22 407.05 684.55 393.49 654.15 392.81 652.61 401.68 648.18 415.78 680.22"/><path class="cls-2" d="M307.23,653.53s13,4.78,25.84,5.5"/></g></g></svg>