<?xml version="1.0" encoding="utf-8"?>
<!-- Generator: Adobe Illustrator 25.0.1, SVG Export Plug-In . SVG Version: 6.00 Build 0)  -->
<svg version="1.1" id="Layer_1" xmlns="http://www.w3.org/2000/svg" xmlns:xlink="http://www.w3.org/1999/xlink" x="0px" y="0px"
	 viewBox="0 0 806.9 706.6" style="enable-background:new 0 0 806.9 706.6;" xml:space="preserve">
<style type="text/css">
	.st0{fill:none;stroke:#321C88;stroke-width:2.4903;stroke-miterlimit:10;}
	.st1{fill:#80DC8F;}
	.st2{fill:#853293;}
	.st3{fill:#FFC19C;}
	.st4{fill:none;stroke:#321C88;stroke-width:2.4903;stroke-linecap:round;stroke-linejoin:round;stroke-miterlimit:10;}
	.st5{fill:none;stroke:#321C88;stroke-width:1.2452;stroke-miterlimit:10;}
	.st6{fill:#E591C3;}
	.st7{fill:#FFC5E6;}
	.st8{fill:#FFFFFF;}
	.st9{fill:#0A104F;}
	.st10{fill:#F854BB;}
	.st11{fill:none;stroke:#FFFFFF;stroke-width:1.2452;stroke-miterlimit:10;}
	.st12{fill:#A77393;stroke:#000000;stroke-width:1.2452;stroke-miterlimit:10;}
	.st13{fill:#FF4059;}
	.st14{fill:none;stroke:#FFFFFF;stroke-width:2.4903;stroke-miterlimit:10;}
</style>
<path class="st0" d="M206.9,263.2c0,0,76.2,114.1,79.8,175.7"/>
<path class="st0" d="M279.5,451c-4.4-11.5-13.7-21.5-24.9-26.6c-8.6-3.9-18.4-5.2-27.7-3.4c-7.5,1.4-13.2,6.4-13.7,14.4
	c-0.5,9.2,6.4,17.8,15.3,19.8c3.6,0.8,7.5,0.4,10.9-1c4.2-1.7,7.8-4.9,9.6-9c1.9-4.5,1.6-9.6,0.2-14.3c-4-13.4-12.8-26.1-23.7-34.8
	c-10.2-8.1-23-12.5-35.8-13.5c-11.9-0.9-27.1,0.2-36.9,7.8c-2.5,1.9-4.6,4.3-6.3,6.9"/>
<path class="st1" d="M103,445.4c0,0-31.4-44.1-15.3-63.1c16.1-19,18.9,27.3,18.9,27.3L103,445.4z"/>
<path class="st1" d="M109.4,452.9c0,0-57.6,8-59.7-16.9C49.7,436,47.6,406.8,109.4,452.9z"/>
<g>
	<path class="st2" d="M569.8,623.6H310.1v-20.4c19.9,3.6,41.7,3.2,60.6,1.9c21.4,4.4,49.1,7,84.1,4.9c0,0,71.8-4.5,113-31.5
		C569.3,590.4,571.5,612.7,569.8,623.6z"/>
	<path class="st2" d="M310.1,623.6v50.9c0,0,119.1,68.6,260.3-8.6l-0.6-42.4H310.1z"/>
</g>
<path class="st0" d="M553,582.1c0,0,64.9-6.8,149.7-93.8l33.3-41.5c0,0,4.9-35.6,21.2-42.6c0,0,20-2.4,1.8,23.7
	c-8,11.4-17.1,17.3-24.9,20.3"/>
<path class="st0" d="M709.8,319.3c0,0-98.9,110-116,151.8"/>
<path class="st3" d="M511.1,194.7c0,0-38,81.4-99.2,49.7c0,0-9.8-15-1.6-36.4c0,0,0,0,0,0l9.1-4l-0.8-11.8c-5.5,1.8-9.1,1.9-9.1,1.9
	c-57,11.3-64-119.1-64-119.1s18.9,21.5,61.4,12.9c0,0,23.5-11.3,33.5,5.5c0,0,0.8,4.3,7.8-15.5c0,0,12.5-20.3,26.3,1.5
	c0,0,12.5,18.9-8.4,36.9l25.9,75.9l10.1,1.5L511.1,194.7z"/>
<path class="st4" d="M418.6,192.1c10.6-3.5,28-13.5,39.1-42.4"/>
<path class="st5" d="M316.1,344.3c-0.3,1.4-0.5,2.8-0.7,4.1"/>
<path class="st6" d="M567.9,579.6c-2.2,1.7-4.5,3.4-6.8,4.9c-41.3,27.1-113,31.5-113,31.5c-35.1,2.1-62.7-0.5-84.1-4.9
	c7.7-0.5,15-1.1,21.4-1.7c0,0,11.2-1.4,22.1-6.8l10.9-5.4c17.9,9.3,33.6-7,33.6-7c43.9-2.6,85.3-26.2,110.6-44L567.9,579.6z"/>
<line class="st5" x1="562.4" y1="546.3" x2="561.3" y2="539"/>
<path class="st5" d="M315.4,389.4c0,0-1.1,0.8-2.9,2.5"/>
<path class="st5" d="M390.4,387c0,0-0.1,0-0.1-0.1c0,0,0,0,0,0C390.3,386.9,390.4,386.9,390.4,387z"/>
<path class="st7" d="M602.4,374.3c0,0,1,118.7-14.6,152c0,0-9.5,8.8-25.3,19.9c-25.3,17.8-66.8,41.4-110.6,44c0,0-15.8,16.3-33.6,7
	l-17.6-39.9l-11,5.5l0.8,1.9l-19.6,8.7c0,0-8.2-10.4-29-11c-20.7-0.6-49.9-6.9-58.8-12.8c0,0-2.3,0.5-4,1.9
	c-6.1-13.2-11.7-31-14.4-54c-6.3-53.9,36.3-95.6,47.9-105.9c17.9,13.9,49.9,15.4,59.4,12.5c0.6-0.2,1.1-0.3,1.6-0.5
	c0.2-0.1,0.5-0.2,0.7-0.3c0.4-0.2,0.8-0.4,1.1-0.6c0.1-0.1,0.2-0.2,0.4-0.2c0.3-0.2,0.6-0.5,0.9-0.7c0,0,0.1-0.1,0.1-0.1
	c0,0,0.1-0.1,0.1-0.1c0.1-0.1,0.2-0.2,0.3-0.4c0.1-0.1,0.1-0.3,0.2-0.4c0-0.1,0.1-0.2,0.1-0.3c0-0.1,0.1-0.2,0.1-0.4
	c0-0.1,0-0.2,0-0.4c0-0.2,0-0.5-0.1-0.7c0-0.1-0.1-0.3-0.1-0.4c0-0.1-0.1-0.3-0.2-0.4c-0.1-0.3-0.3-0.6-0.5-0.8
	c-0.1-0.2-0.3-0.4-0.5-0.7c-0.1-0.1-0.2-0.2-0.3-0.3c-0.1-0.1-0.2-0.2-0.3-0.3c-0.1-0.1-0.2-0.2-0.3-0.3c-0.2-0.2-0.4-0.4-0.7-0.6
	c-0.2-0.2-0.4-0.3-0.6-0.5c-0.2-0.1-0.4-0.3-0.5-0.4c-0.1-0.1-0.2-0.1-0.3-0.2c-0.1-0.1-0.3-0.2-0.4-0.3c-1-0.8-2-1.4-2.7-1.7
	c-0.1-0.1-0.2-0.1-0.3-0.2c-0.1,0-0.2-0.1-0.3-0.1c0.3,0.1,1.2,0.5,2.4,0.9c0.3,0.1,0.6,0.2,0.9,0.3c1.6,0.5,3.5,1.2,5.8,1.8
	c0.4,0.1,0.7,0.2,1.1,0.3c0.3,0.1,0.6,0.2,0.9,0.2c0.9,0.2,1.9,0.5,2.9,0.7c0.3,0.1,0.7,0.1,1,0.2c1,0.2,2,0.4,3.1,0.6
	c0.6,0.1,1.3,0.2,1.9,0.3c2.3,0.3,4.6,0.4,6.7,0.3c0.7,0,1.2-0.1,1.7-0.2c0.1,0,0.1,0,0.2,0c0.1,0,0.2-0.1,0.3-0.1
	c0.2-0.1,0.5-0.2,0.6-0.3c0.1,0,0.1-0.1,0.1-0.1c0.4-0.2,0.6-0.5,0.6-0.8c0-0.1,0-0.1,0-0.2c0-0.1,0-0.3,0-0.5c0-0.1,0-0.1,0-0.2
	c0,0,0,0,0,0c-0.1-0.2-0.1-0.4-0.3-0.6c-0.3-0.6-0.9-1.3-1.6-1.9c-0.2-0.2-0.5-0.4-0.7-0.7c-0.2-0.2-0.5-0.4-0.8-0.7
	c-0.3-0.2-0.5-0.4-0.8-0.7c-0.1-0.1-0.3-0.2-0.4-0.3c-0.8-0.6-1.7-1.2-2.5-1.7c-0.3-0.2-0.6-0.4-0.8-0.6c-0.4-0.3-0.8-0.5-1.2-0.7
	c-0.1,0-0.1-0.1-0.2-0.1c0.8,0.4,2.5,1.3,4.5,2.1c0.2,0.1,0.4,0.2,0.7,0.3c0,0,0,0,0,0c0.3,0.1,0.6,0.2,0.9,0.3c0,0,0.1,0,0.1,0
	c0.3,0.1,0.5,0.2,0.8,0.3c1,0.3,2,0.5,3,0.7c0.2,0,0.3,0,0.5,0c0.6,0.1,1.2,0.1,1.8,0c0.2,0,0.5-0.1,0.7-0.1c0.2,0,0.5-0.1,0.7-0.2
	c0.2-0.1,0.4-0.2,0.6-0.3c0.8-0.4,1.5-1.1,1.9-2.1c1.8-4.1-3.5-7.5-7.9-9.5c6.6,1.6,7.9-2,7.9-2c-2.8-14.9-46.8-24.1-46.8-24.1
	c8.5,0.4,19.9-0.9,19.9-0.9c13.3-3.6-1.1-10-1.1-10c-32.4-4.8-51.5-2.2-62.7,2.6c2-9.3,6.9-20.3,11.1-28.9c4-8,7.4-13.7,7.4-13.7
	c-1.5-60.1,74.5-93.3,75.7-93.8c-1.3,0.6-2.2,7.5-2.5,8.8c-0.6,3.4-0.9,6.9-0.7,10.3c0.5,11.4,4.9,18.9,16.3,22.2
	c28.4,8,56.3-9.7,73.1-31.5c5.5-7.2,10.7-14.9,14.5-23.2c0,0,59.9,16,75.6,35.5C586.6,230.2,603.9,237,602.4,374.3z"/>
<path class="st4" d="M400.6,557.4c0,0-6.4-34.1,27.8-34.1c0,0,30-28.7,61.3-38.9c0,0-11.2-17.2,9.3-16.6c0,0-6.2-12.2,9.2-11.8
	l0.1-201.4"/>
<path class="st4" d="M410.3,380.3c0,0,26.8,24.1,97.9-7.7"/>
<path class="st4" d="M457.2,388.1c0,0,30.1,7.8,38.8,39.8"/>
<path class="st8" d="M324.8,477.7c0,0,5.6-29.7,27.3-24.5c21.7,5.2-27.3,81.5-27.3,81.5s-41-55.4-24.9-73.1
	C299.9,461.6,314.4,451.6,324.8,477.7z"/>
<path class="st9" d="M502,193.4l-10.1-1.5l-25.9-75.9c21-18,8.4-36.9,8.4-36.9c-13.8-21.8-26.3-1.5-26.3-1.5
	c-7,19.8-7.8,15.5-7.8,15.5c-10-16.7-33.5-5.5-33.5-5.5c-42.5,8.7-61.4-12.9-61.4-12.9s7,130.4,64,119.1c0,0,3.6-0.1,9.1-1.9
	l0.8,11.8l-9.1,4c0,0,0,0,0,0c-1.2,0.5-77.2,33.7-75.7,93.8c0,0-3.4,5.7-7.4,13.7c-16.5-26.1,8-87.5,8-87.5s19.2-46.6-7.1-67.6
	c-26.3-21-27.4-41-27.4-41c-5.3-45.9,36.8-60.8,36.8-60.8S354-13.8,447.5,10.2c0,0,57.5,13,48.5,90.1
	C496,100.3,521.4,160.5,502,193.4z"/>
<path class="st3" d="M406.8,388.1c-0.4,1-1.1,1.6-1.9,2.1c-0.2,0.1-0.4,0.2-0.6,0.3c-0.2,0.1-0.5,0.1-0.7,0.2
	c-0.2,0-0.5,0.1-0.7,0.1c-0.6,0-1.2,0-1.8,0c-0.2,0-0.3,0-0.5,0c-1-0.1-2-0.4-3-0.7c-0.3-0.1-0.5-0.2-0.8-0.3c0,0-0.1,0-0.1,0
	c-0.3-0.1-0.6-0.2-0.9-0.3c0,0,0,0,0,0c-0.2-0.1-0.5-0.2-0.7-0.3c-2-0.8-3.6-1.6-4.5-2.1c0,0,0,0,0,0c0,0-0.1-0.1-0.1-0.1
	c0,0,0,0,0,0c0.1,0.1,0.2,0.1,0.4,0.2c0.3,0.2,0.7,0.4,1.2,0.7c0.3,0.2,0.5,0.4,0.8,0.6c0.8,0.5,1.6,1.1,2.5,1.7
	c0.1,0.1,0.3,0.2,0.4,0.3c0.3,0.2,0.6,0.4,0.8,0.7c0.3,0.2,0.5,0.4,0.8,0.7c0,0,0,0,0,0c0.2,0.2,0.5,0.4,0.7,0.7
	c0.7,0.7,1.3,1.3,1.6,1.9c0.1,0.2,0.2,0.4,0.3,0.6c0,0,0,0,0,0c0,0.1,0,0.2,0,0.2c0,0.2,0,0.3,0,0.5c0,0,0,0.1,0,0.2
	c-0.1,0.3-0.3,0.6-0.6,0.8c0,0-0.1,0-0.1,0.1c-0.2,0.1-0.4,0.2-0.6,0.3c-0.1,0-0.2,0.1-0.3,0.1c-0.1,0-0.1,0-0.2,0
	c-0.5,0.1-1,0.2-1.7,0.2c-2.1,0.1-4.4,0-6.7-0.3c-0.6-0.1-1.3-0.2-1.9-0.3c-1-0.2-2-0.4-3.1-0.6c-0.3-0.1-0.7-0.1-1-0.2
	c-1-0.2-2-0.5-2.9-0.7c-0.3-0.1-0.6-0.2-0.9-0.2c-0.4-0.1-0.8-0.2-1.1-0.3c-2.3-0.6-4.2-1.3-5.8-1.8c-0.3-0.1-0.6-0.2-0.9-0.3
	c-1.2-0.4-2.1-0.8-2.4-0.9c0.1,0,0.2,0.1,0.3,0.1c0.1,0.1,0.2,0.1,0.3,0.2c0.6,0.4,1.6,1,2.7,1.7c0.1,0.1,0.3,0.2,0.4,0.3
	c0.1,0.1,0.2,0.1,0.3,0.2c0.2,0.1,0.4,0.3,0.5,0.4c0.2,0.2,0.4,0.3,0.6,0.5c0.2,0.2,0.4,0.4,0.7,0.6c0.1,0.1,0.2,0.2,0.3,0.3
	c0.1,0.1,0.2,0.2,0.3,0.3c0.1,0.1,0.2,0.2,0.3,0.3c0.2,0.2,0.3,0.4,0.5,0.7c0.2,0.3,0.3,0.6,0.5,0.8c0.1,0.1,0.1,0.3,0.2,0.4
	c0,0.1,0.1,0.3,0.1,0.4c0.1,0.2,0.1,0.5,0.1,0.7c0,0.1,0,0.2,0,0.4c0,0.1,0,0.2-0.1,0.4c0,0.1-0.1,0.2-0.1,0.3
	c0,0.1-0.1,0.3-0.2,0.4c-0.1,0.1-0.2,0.3-0.3,0.4c0,0-0.1,0.1-0.1,0.1c0,0-0.1,0.1-0.1,0.1c-0.2,0.2-0.5,0.5-0.9,0.7
	c-0.1,0.1-0.2,0.2-0.4,0.2c-0.3,0.2-0.7,0.4-1.1,0.6c-0.2,0.1-0.4,0.2-0.7,0.3c-0.5,0.2-1,0.4-1.6,0.5c-9.6,2.9-41.5,1.3-59.4-12.5
	c-8.2-6.4-13.5-15.3-12.3-27.6c0,0-1.1-12.5,15.9-19.9c11.2-4.8,30.3-7.4,62.7-2.6c0,0,14.5,6.4,1.1,10c0,0-11.4,1.3-19.9,0.9
	c0,0,44,9.2,46.8,24.1c0,0-1.3,3.6-7.9,2C403.3,380.6,408.6,384,406.8,388.1z"/>
<polygon class="st5" points="377.2,296.4 396.7,300.8 379.4,324.1 "/>
<polygon class="st5" points="431.9,310.2 452.8,315.7 435.4,339.2 "/>
<polygon class="st5" points="470.6,278.2 488.8,283.4 486.4,254.9 "/>
<polygon class="st5" points="413.9,264.6 432.8,269.9 431.9,251.1 "/>
<polygon class="st5" points="360.5,251.7 376.3,232 378.6,257.7 "/>
<polygon class="st5" points="488.8,324.1 491.1,348.4 508.2,329.1 "/>
<polygon class="st5" points="527,291.9 543.1,296.4 543.1,269.9 "/>
<polygon class="st5" points="516.3,213.8 519.4,241.5 535.1,218.3 "/>
<polygon class="st5" points="571.7,228.8 574.9,253.3 587.4,234.1 "/>
<polygon class="st5" points="582.2,305.7 595.9,283.2 597.9,310.2 "/>
<polygon class="st5" points="543.1,336.2 546.1,363.6 563,342 "/>
<polygon class="st5" points="567.9,392.7 553,416.8 571.7,422.9 "/>
<polygon class="st5" points="571.7,460.4 574.3,488.5 588.5,466.8 "/>
<polygon class="st5" points="516.7,446.8 518.8,474.4 535.1,452.5 "/>
<polygon class="st5" points="541.6,503.1 525.9,526.9 543.1,531.1 "/>
<polygon class="st5" points="486.5,490.2 470.5,513.4 490.7,517.1 "/>
<polygon class="st5" points="433.3,543.6 453,549.9 435.7,570.9 "/>
<polygon class="st5" points="488.3,557.3 508.2,562.2 492.8,582.1 "/>
<polygon class="st5" points="377.4,528.3 396.9,532.7 380.5,557.3 "/>
<polyline class="st5" points="333.8,519.7 341.8,521.5 326.9,543.6 324.8,534.7 "/>
<polygon class="st5" points="267.9,503.1 270.8,529.5 286.7,506.9 "/>
<polygon class="st5" points="360.6,485.2 379,488.3 375.8,462.1 "/>
<polygon class="st5" points="415.1,499 434.5,503.7 431.9,476.2 "/>
<polygon class="st5" points="460.8,433.2 480.6,439 463.8,462.1 "/>
<polygon class="st5" points="407.2,419.4 425.9,425.5 409.1,447.6 "/>
<polygon class="st5" points="351.2,407.8 369.8,412 353.6,433.5 "/>
<polyline class="st5" points="308,396 315.5,397.4 299.3,419.4 298.5,406 "/>
<polyline class="st5" points="444.8,389.4 459.3,366.6 463,389 "/>
<path class="st0" d="M454.5,84c0,0,10-14.1,15.9,2.1"/>
<path class="st3" d="M407.3,602.7c-10.9,5.4-22.1,6.8-22.1,6.8c-6.5,0.6-13.7,1.2-21.4,1.7c-18.9,1.2-40.7,1.7-60.6-1.9
	c-2.8-0.5-5.5-1.1-8.2-1.7c-29.8-7.4-14.3-29.2-14.3-29.2c-9.3-10.8,2.2-14.3,2.2-14.3c-8-6.5-6.6-10.3-4-12.3c1.8-1.4,4-1.9,4-1.9
	c8.9,5.8,38,12.1,58.8,12.8c20.7,0.6,29,11,29,11l19.6-8.7L407.3,602.7z"/>
<polyline class="st5" points="311.3,460.6 321.7,447.6 321.7,471.1 "/>
<polyline class="st5" points="508.2,387.3 513.5,378 515.9,405.6 508.2,401.5 "/>
<path class="st0" d="M649.7,154.7c9,11.4,7.4,24.4-5.9,31.2c-2.6,1.3-5.8,2.4-8.1,0.8c-2.2-1.5-2.6-4.8-1.5-7.2
	c2.7-5.8,10.2-9.9,16.5-8.5c3.9,0.9,7.4,3.3,10.4,5.9c19,16.2,25.1,43.2,26.5,67.2c0.9,14.6,0.3,34.1-7,47.2
	c-11.4,20.5-36.4,25.4-55.2,12c-4.2-3-8-6.7-10-11.4c-3-7.3-1.5-16.1,2.6-22.7c4.5-7.3,13.4-13.6,22.3-12
	c8.7,1.6,14.8,9.7,18.5,17.2c0,0,34.3,66.9-56.7,123.1"/>
<path class="st10" d="M129.4,239c0,0-11.5,9.5,3,16s49.2,0,49.2,0l17.5-3.2c0,0,13.2-38.2,8.7-55.8c0,0-3.6-21.6-16-14.2l-18.8-26
	c0,0-34.3,8.5-49.1,26.8s-18.3,38-18.3,38L129.4,239z"/>
<path class="st0" d="M178.1,255.5c0,0,12.3,12.5,28.8,7.8c0,0,5.4-11.8-3.8-25.2"/>
<path class="st11" d="M129.4,239c6.5-3,13.3-5.3,20.3-6.5c5.8-0.9,15-2,20.2,1.6c1.3,0.9,2.3,2.4,2.3,4c0,2.8-2.6,3.8-4.9,4
	c-9.2,0.9-18.3-4.7-22.2-13c-1-2.1-1.5-4.5-0.9-6.8c0.5-2,1.9-3.8,3.6-5c5-3.5,11.8-2.7,17.1-0.3c9.5,4.3,16.6,12.7,23.2,20.5
	c3.9,4.5,7.5,9.2,10.9,14.1"/>
<path class="st11" d="M165.9,217.7c0,0-13.2-23.1,4.8-22.6s22,16.6,18.5,22.6c-3.5,6-16-11.1,2.5-36"/>
<path class="st11" d="M139.4,188.6c0,0-20.9,18.2-9,20.4c11.9,2.2,34.6-34,30.8-39.9c0,0-26.7-1.5-44.2,36s38-1.5,44.2-11.9
	c0,0,13.6-14.8,11.7-37.5"/>
<path class="st0" d="M246.8,330.5c0,0-3.6-68.1,24.8-102.8"/>
<circle class="st0" cx="274.3" cy="222" r="7.5"/>
<path class="st0" d="M261.5,359.7c-1-0.1-3.1-3.1-3.8-3.8c-3.5-3.2-7.1-6.3-10.9-9.2c-11.2-8.5-23.7-15.7-37.3-19.7
	c-14.1-4.2-32.4-5.2-45.8,2.1c-12.3,6.7-14.8,23.1-1.9,30.6C182,371.4,236.3,356.1,261.5,359.7z"/>
<path class="st0" d="M261.5,359.7c0,0-59.2-29.5-109.1-15.7"/>
<circle class="st0" cx="142.6" cy="403.5" r="7.5"/>
<path class="st0" d="M277.3,571.8c-113-29-206.8-168.2-206.8-168.2c-0.9-8.2-2.8-16.4-5.2-24.3c-2.1-6.8-4.5-13.5-8-19.7
	c-1.8-3.2-4-6.2-6.4-9c-1.7-1.9-4.6-5.6-7.3-6.1c-1.1-0.2-2.2,0.1-3.3,0.5c-7.9,3.3-13.2,12.2-9.5,20.4c2.7,6,7.6,11,12.4,15.5
	c12.7,11.6,21.7,17.6,28,20.5"/>
<path class="st0" d="M645.5,395.2c0,0,58-59.5,91-31.7c0,0,21.2,20.5-9.6,31.2c-5.2,1.8-10.8,2.6-16.3,2.4
	c-15.1-0.4-52.5-0.8-71.1,5.6L645.5,395.2z"/>
<path class="st0" d="M639.6,402.8c0,0,55.4-37.5,103.5-28.6"/>
<path class="st10" d="M709.8,301.7c0,0,13.3,26.8,52.6,16.2c39.2-10.7,25.4-31.7,25.4-31.7s-0.7-1.1-4.2-1.6c0,0,7.8-33.6-20.2-43.5
	c-28-9.9-42.1,2.1-42.1,2.1s-8-2.6-12.8,3.4S689.7,274,709.8,301.7z"/>
<path class="st0" d="M709.8,301.7c0,0-13.3,30,17.2,15.1"/>
<path class="st1" d="M706.9,483.1c0,0-14.6-46.6,1.7-51.2S721.5,460.4,706.9,483.1z"/>
<path class="st1" d="M704.8,485.8c0,0,24.9-24.2,43.6-21.7c18.8,2.5,3.3,18.2-15.2,20.1C714.6,486.2,720.4,483.8,704.8,485.8z"/>
<path class="st1" d="M675.1,514.6c0,0-4.7-24.9,1.5-43.5s21-9.4,17.2,7.6C690.1,495.7,675.1,514.6,675.1,514.6z"/>
<path class="st1" d="M650.9,534.3c0,0,34.7-26,51.8-20.9C719.8,518.6,700.7,538.6,650.9,534.3z"/>
<path class="st1" d="M641.2,541.4c0,0-4.9-41.9,10.7-46.6C667.4,490.2,665.4,516.2,641.2,541.4z"/>
<path class="st1" d="M619.2,555.6c0,0,36.3-15.6,46.3-8.9c10.1,6.8,3.7,16.1-11.6,17.2C638.6,565.1,619.2,555.6,619.2,555.6z"/>
<path class="st1" d="M596.2,567.8c0,0-0.4-36,12.4-42.7c12.8-6.7,14,8,10.6,16.3C615.8,549.7,596.2,567.8,596.2,567.8z"/>
<path class="st1" d="M580.1,574.6c0,0,34.3-8.7,42.4-3.8c8.1,5,10.2,18.8-21.2,17.2C601.3,588.1,587.1,590.4,580.1,574.6z"/>
<path class="st1" d="M142.6,487.8c0,0-35.7-43.9-16.4-62.8c0,0,17.6-13.2,19.3,15.4S142.6,487.8,142.6,487.8z"/>
<path class="st1" d="M184.6,524c0,0-37.3-39.5-19.3-60.5c0,0,18.8-13.7,21.2,26.5S184.6,524,184.6,524z"/>
<path class="st1" d="M246.7,561.1c0,0-45.2-37.5-27.7-60.8c0,0,15.4-11.1,21.8,21.1S246.7,561.1,246.7,561.1z"/>
<path class="st1" d="M274.8,571.8c0,0-33.9,21.4-53.3,12.3c0,0-15.4-8.7-4.4-19.1C228.2,554.6,274.8,571.8,274.8,571.8z"/>
<path class="st1" d="M216.5,545.6c0,0-40.4,24.1-61.7,2.8c0,0-10.3-17.2,17.8-13.8C172.6,534.7,197.6,540.9,216.5,545.6z"/>
<path class="st1" d="M171.2,513.4c0,0-38.7,17-58-11.8c0,0-7.1-10.9,7.4-11.8C135,488.9,171.2,513.4,171.2,513.4z"/>
<path class="st11" d="M710.7,244.7c0,0,14.4-8.9,23.3,15.8c0,0-0.2,8.4-3.2,15.5c0,0,0.1,5,9.9,12.7c9.8,7.7,3.5,19.9-6.5,29.7"/>
<path class="st11" d="M736.3,237.5c0,0,21.2,9.3,23.8,27.4c2.6,18.1,2,43.9-23.8,54.7"/>
<path class="st11" d="M758.3,296.7c0,0,15.8,3.1,25.3-12.2"/>
<path class="st11" d="M760.9,271.7c0,0,18-0.5,23.6,6.8"/>
<path class="st11" d="M757,255.6c0,0,15.1-0.3,15.7,17.1"/>
<path class="st0" d="M-116.6,384.8c0,0,191.4,10,220,196.5"/>
<path class="st4" d="M364.6,366.6c0,0,18.4,7.5,34.2,12"/>
<path class="st4" d="M361.4,375.1c0,0,16.6,8.2,29,11.9"/>
<path class="st4" d="M357.6,385.4c0,0,5.7,4.5,12.5,6.7"/>
<path class="st4" d="M334.6,301.8c0,0,12.6-24.4,34.9-35.6"/>
<polygon class="st12" points="418.2,597.3 407.3,602.7 390.4,564.8 389.6,562.9 400.6,557.4 "/>
<path class="st4" d="M283,564c0,0,16.2,5.9,32.2,6.8"/>
<path class="st4" d="M301.4,108.4c0,0,1.2,27.4,14.4,37.7c13.2,10.3,23.1,33.4,10.7,58.5s-43.1,87.1-3.9,110.9"/>
<path class="st0" d="M348.1,76.5c0,0,25.4,55.4,84.6,10"/>
<ellipse transform="matrix(0.7806 -0.625 0.625 0.7806 -12.115 292.2637)" class="st13" cx="410.2" cy="163.4" rx="9.6" ry="5.5"/>
<path class="st0" d="M396.1,170.3c0,0,15,1.5,21.3-20.3"/>
<circle class="st14" cx="470.7" cy="121" r="16.7"/>
</svg>
