<?xml version="1.0" encoding="utf-8"?>
<!-- Generator: Adobe Illustrator 25.0.1, SVG Export Plug-In . SVG Version: 6.00 Build 0)  -->
<svg version="1.1" id="Layer_1" xmlns="http://www.w3.org/2000/svg" xmlns:xlink="http://www.w3.org/1999/xlink" x="0px" y="0px"
	 viewBox="0 0 931.7 167.6" style="enable-background:new 0 0 931.7 167.6;" xml:space="preserve">
<style type="text/css">
	.st0{fill:#A834AE;}
	.st1{fill:#25B3E9;}
	.st2{fill:#156DAE;}
	.st3{fill:#0C499A;}
	.st4{fill:#021449;}
	.st5{fill:#156DAF;}
	.st6{fill:#F368E0;}
</style>
<g>
	<path class="st0" d="M80.5,64.7c-0.9,4.5-1.4,9-1.5,13.6c-8.1,14.2-13.8,29.8-16.6,45.9c-0.2-1.8-0.4-3.5-0.5-5.3v-7.6
		c0.1-2.9,0.5-5.9,1-8.8C65.3,88.7,71.9,76.2,80.5,64.7z"/>
	<path class="st1" d="M62.8,102.6c-0.5,2.9-0.9,5.8-1,8.8V65.8c0,0,26.2-27.4,29.5-31c-1.6,2-2.6,5.4-3.6,7.6
		c-3,6.7-5.3,13.7-7,20.9c-0.1,0.5-0.2,0.9-0.3,1.4C71.9,76.2,65.3,88.7,62.8,102.6z"/>
	<path class="st1" d="M62.3,124.3L62.3,124.3c0,0,0-0.1,0-0.1S62.3,124.3,62.3,124.3z"/>
	<path class="st2" d="M62.3,124.3L62.3,124.3c0,0,0-0.1,0-0.1S62.3,124.3,62.3,124.3z"/>
	<path class="st3" d="M91.3,34.8c-1.6,2-2.6,5.4-3.6,7.6c-3,6.7-5.3,13.7-7,20.9c-0.1,0.5-0.2,0.9-0.3,1.4
		c-8.5,11.4-15.1,23.9-17.7,37.9c-0.5,2.9-0.9,5.8-1,8.8V65.8C61.8,65.8,88,38.3,91.3,34.8z"/>
	<path class="st4" d="M146.2,155.5l-3.4-4.2l1.3,1.2c-18-30.6,5.8-60.7,17.1-72.5c-0.4,3.2,0,6,1.6,8.1
		C162.7,88.2,135.9,116.4,146.2,155.5z"/>
	<path class="st5" d="M161.1,80.1c-11.3,11.7-35,41.8-17.1,72.5l-1.3-1.2l-21.1-25.9l51.8-71.8C170.3,58.2,162.2,70.6,161.1,80.1z"
		/>
	<path class="st6" d="M223,18.5L166.4,75c0,0-2.2,1.8-5.4,5.2c-11.3,11.7-35,41.8-17.1,72.5l-1.3-1.2l-18-17.7
		c-8.4-8.3-17.6-16-24-26c-6.2-9.9-8.3-21.9-5.8-33.3c2.7-13.2,10.5-22.2,19.6-31.5c8.6-8.6,17-17.3,25.5-26c3.9-4,7.9-8,11.8-12
		c2.6-2.7,6.2-4.2,9.9-4.2h53.8c5.7,0,10.4,4.6,10.4,10.4C226,13.8,225,16.5,223,18.5z"/>
	<path class="st3" d="M214.7,167.1l-53.9,0.5c-3,0-5.8-1.3-7.7-3.6l-6.9-8.4c-10.3-39.1,16.5-67.3,16.5-67.3
		c5,6.6,37.9,39,59.6,60.1c4.3,4.3,4.4,11.2,0.1,15.6C220.3,165.9,217.6,167.1,214.7,167.1z"/>
	<path class="st3" d="M120.8,22.9c-11.6,10.8-24.6,22.5-35.4,35.6c-1.7,2-3.3,4.1-4.9,6.2c0.1-0.5,0.2-0.9,0.3-1.4
		c1.7-7.2,4-14.2,7-20.9c1-2.2,2-5.6,3.6-7.6c-3.4,3.5-29.5,31-29.5,31v45.6c-0.2,2.5-0.2,5,0,7.6c0.1,1.8,0.3,3.5,0.5,5.3
		c0,0,0,0.1,0,0.1H12c-6.6,0-12-5.4-12-12V72.6c0-6.6,5.4-12,12-12h48.2l0.8-41c0.1-6.6,5.5-11.8,12-11.8h41.9
		c4.8,0,8.7,3.9,8.7,8.7C123.5,19,122.5,21.3,120.8,22.9z"/>
	<path class="st6" d="M121.5,156.4c0.1,6.1-4.8,11.1-10.9,11.1c-0.1,0-0.1,0-0.2,0H70.9c-5,0-9.1-4.1-9.1-9.1v-34.1h0.5
		c0,0,0-0.1,0-0.1c2.9-16.1,8.5-31.7,16.6-45.9c-0.3,10.7,1.8,21.4,6.1,31.3c7.1,16.2,20.4,27,32.9,38.9
		C120.2,150.5,121.5,153.4,121.5,156.4z"/>
</g>
<g>
	<rect x="260.1" y="19.3" class="st3" width="22.4" height="73.6"/>
	<g>
		<polygon class="st3" points="277.5,50.7 314.2,19.3 343.4,19.3 301.1,56.1 343.4,90.8 313.3,90.8 274.1,59.4 		"/>
		<path class="st6" d="M420.4,90.8c-13.5,10.4-31.6,12.4-47,5c-1.3,0.3-2.7,0.5-4,0.5c-9.7,0-17.6-7.8-17.6-17.6c0,0,0,0,0,0
			c0-1.3,0.2-2.6,0.5-3.9c-7.8-16.1-5.4-35.3,6.1-48.9l7.7,7.4c-7,8.6-9.4,20.1-6.5,30.8c2.9-2,6.3-3,9.8-3
			c9.7,0.1,17.5,7.9,17.5,17.6c0,3.4-1,6.8-2.9,9.7c2.9,0.8,5.8,1.1,8.8,1.1c7.3,0,14.4-2.3,20.3-6.6L420.4,90.8z"/>
		<path class="st3" d="M438,55.1c0,11.8-4.6,23.2-12.9,31.6l-7.3-7.7c6.2-6.4,9.6-15,9.6-23.9c0-2.8-0.3-5.5-1-8.2
			c-2.9,1.9-6.2,2.9-9.7,2.9c-9.7,0-17.6-7.9-17.6-17.6c0-3.7,1.2-7.3,3.3-10.3c-10.7-3.1-22.3-0.8-31.1,6.1l-7.6-7.5
			c13.9-11.8,33.6-14,49.8-5.6c1-0.2,2.1-0.3,3.2-0.3c9.7,0,17.6,7.9,17.6,17.6c0,0,0,0,0,0c0,1.3-0.1,2.6-0.5,3.9l0,0
			C436.6,42,438,48.5,438,55.1z"/>
		<polygon class="st3" points="452,19.3 474,19.3 518.8,64 518.8,37.7 513,37.7 513,19.3 541.9,19.3 541.9,92.9 519.5,92.9 
			472.3,46.4 472.3,92.9 452,92.9 		"/>
		<polygon class="st3" points="554.8,19.3 576.7,19.3 621.5,64 621.5,37.7 615.7,37.7 615.7,19.3 644.7,19.3 644.7,92.9 622.3,92.9 
			575,46.4 575,92.9 554.8,92.9 		"/>
		<polygon class="st3" points="661.6,19.3 661.6,91.6 742.7,91.6 742.7,75.9 683.7,75.9 683.7,35.2 742.7,35.2 742.7,19.3 		"/>
		<rect x="656.9" y="47.2" class="st6" width="71.4" height="17.2"/>
		<polygon class="st3" points="845.6,19.3 931.7,19.3 931.7,34.6 898.1,34.6 898.1,92.9 875.8,92.9 875.8,34.1 845.6,34.1 		"/>
		<path class="st3" d="M837.9,72.2v19h-50.6c-20.4,0-37-16.2-37-36.1s16.6-36.1,37-36.1h48.9v21.4h-24.5v-6.3l-17.3-0.3h-1.2
			c-12.3,0-22.2,9.6-22.2,21.5s10,21.5,22.2,21.5h19.8v-4.6H837.9z"/>
		<path class="st6" d="M263.4,140.9c0-9.8,8-17.4,18.3-17.4c4.6,0.2,8.9,2,12.3,5l-5.1,6.5c-2-1.8-4.5-2.9-7.2-3.1
			c-5-0.1-9,3.9-9.1,8.9s3.9,9,8.9,9.1c2.8-0.1,5.4-1.3,7.4-3.2l5,6.7c-3.4,3.1-7.8,4.9-12.5,4.9
			C272.1,158.3,263.4,151.4,263.4,140.9z"/>
		<path class="st6" d="M306.5,132.5v4.6H317v7.4h-10.6v4.8h12.8v8.3h-21.6v-33.3h21.6v8.2H306.5z"/>
		<path class="st6" d="M352.9,124.3v33.6h-2.8L333,141.3v16.3h-8.8V124h2.8l17,16.5v-16.2H352.9z"/>
		<path class="st6" d="M381.4,132.6h-7.9v25h-8.8v-25h-8v-8.2h24.8V132.6z"/>
		<path class="st6" d="M393.9,132.5v4.6h10.6v7.4h-10.6v4.8h12.9v8.3h-21.6v-33.3h21.6v8.2H393.9z"/>
		<path class="st6" d="M429.4,157.6l-8.9-14.4v14.4h-8.8v-33.3h12.6c7.2,0,12.3,4.8,12.3,10.8c0,3.9-2.2,7.4-5.8,9.1l8.9,13.3H429.4
			z M420.5,138.9h3.6c1.8,0.1,3.5-1.2,3.6-3.1c0.1-1.8-1.2-3.5-3.1-3.6c-0.2,0-0.4,0-0.5,0h-3.6V138.9z"/>
		<path class="st6" d="M464.6,132.5v5.4h10.6v7.4h-10.6v12.3h-8.7v-33.4h21.6v8.3H464.6z"/>
		<path class="st6" d="M479,141c0-10,7.9-17.6,18.3-17.6s18.3,7.6,18.3,17.6c0,10-7.9,17.4-18.3,17.4C486.9,158.4,479,150.9,479,141
			z M506.6,140.9c0.2-5.1-3.9-9.4-9-9.6c-5.1-0.2-9.4,3.9-9.6,9c-0.2,5.1,3.9,9.4,9,9.6c0.1,0,0.2,0,0.3,0c5,0.1,9.2-3.8,9.3-8.8
			C506.6,141.1,506.6,141,506.6,140.9L506.6,140.9z"/>
		<path class="st6" d="M537.6,157.6l-8.9-14.4v14.4h-8.8v-33.3h12.6c7.2,0,12.3,4.8,12.3,10.8c0,3.9-2.2,7.4-5.8,9.1l8.9,13.3H537.6
			z M528.6,138.9h3.6c1.8,0.1,3.5-1.2,3.6-3.1c0.1-1.8-1.2-3.5-3.1-3.6c-0.2,0-0.4,0-0.5,0h-3.6V138.9z"/>
		<path class="st6" d="M572.7,132.5v5.4h10.6v7.4h-10.6v12.3H564v-33.4h21.6v8.3H572.7z"/>
		<path class="st6" d="M598,132.5v4.6h10.6v7.4H598v4.8h12.8v8.3h-21.6v-33.3h21.6v8.2H598z"/>
		<path class="st6" d="M638.5,132.6h-8v25h-8.9v-25h-8v-8.2h24.8V132.6z"/>
		<path class="st6" d="M659.4,153.7H647l-1.7,3.9h-9.7l15.5-33.7h4.2l15.5,33.7h-9.7L659.4,153.7z M656.6,147.2l-3.4-7.9l-3.4,7.9
			L656.6,147.2z"/>
		<path class="st6" d="M695.7,149.3v8.3h-21.6v-33.3h8.8v25H695.7z"/>
		<path class="st6" d="M747.9,124v33.6h-8.8v-13.2l-9,12.6h-0.1l-9-12.6v13.2h-8.8V124h3.6l14.3,19.6l14.3-19.6H747.9z"/>
		<path class="st6" d="M762.4,132.5v4.6H773v7.4h-10.6v4.8h12.8v8.3h-21.5v-33.3h21.6v8.2H762.4z"/>
		<path class="st6" d="M809.2,141c0,10.3-6.9,16.6-18.2,16.6h-10.8v-33.2H791C802.3,124.3,809.2,130.6,809.2,141z M800.4,141
			c0-5.2-3.6-8.4-9.6-8.4h-2v16.7h2.1C796.8,149.3,800.4,146.1,800.4,141L800.4,141z"/>
		<path class="st6" d="M813.6,124.3h8.8v33.3h-8.8V124.3z"/>
		<path class="st6" d="M826.7,140.9c0-9.8,8-17.4,18.3-17.4c4.6,0.2,8.9,2,12.3,5l-5.1,6.5c-2-1.8-4.5-2.9-7.2-3.1
			c-5-0.1-9,3.9-9.1,8.9c-0.1,5,3.9,9,8.9,9.1c2.8-0.1,5.4-1.3,7.4-3.2l5,6.7c-3.4,3.1-7.8,4.9-12.5,4.9
			C835.5,158.3,826.7,151.4,826.7,140.9z"/>
		<path class="st6" d="M861.1,124.3h8.8v33.3h-8.8V124.3z"/>
		<path class="st6" d="M904.4,124.3v33.6h-2.8l-17.1-16.6v16.3h-8.8V124h2.9l17,16.5v-16.2H904.4z"/>
		<path class="st6" d="M918.9,132.5v4.6h10.6v7.4h-10.6v4.8h12.8v8.3h-21.6v-33.3h21.6v8.2H918.9z"/>
	</g>
</g>
</svg>
