<svg xmlns="http://www.w3.org/2000/svg" viewBox="0 0 489.91 473.94"><defs><style>.cls-1{fill:#a2cdfe;}.cls-2{fill:#a6cffe;}.cls-3{fill:#f62832;}.cls-4{fill:#f62835;}.cls-10,.cls-12,.cls-15,.cls-16,.cls-17,.cls-5{fill:none;}.cls-10,.cls-13,.cls-16,.cls-5{stroke:#000;}.cls-12,.cls-13,.cls-5{stroke-miterlimit:10;}.cls-6{fill:#a02930;}.cls-7{fill:#f8f5f6;}.cls-8{fill:#420522;}.cls-13,.cls-9{fill:#f9f5f3;}.cls-10,.cls-15,.cls-16,.cls-17{stroke-linecap:round;stroke-linejoin:round;}.cls-10,.cls-12,.cls-15{stroke-width:3px;}.cls-11{fill:#410521;}.cls-12{stroke:#ebf1fc;}.cls-14{fill:#440523;}.cls-15,.cls-17{stroke:#a6cffe;}.cls-16,.cls-17{stroke-width:2px;}</style></defs><g id="Layer_2" data-name="Layer 2"><g id="Layer_1-2" data-name="Layer 1"><path class="cls-1" d="M411,8.33v188H313.78l22.6-30.13s-20.71-4.21-39.8,13.42a99.69,99.69,0,0,0-10.16,16.71H261.17V151.48l.4.11,1.94.55,1.66.5,1.21.38c.6.18,1.19.38,1.78.58.78.26,1.55.53,2.32.81l1.14.42,1.14.43h0c.69.26,1.38.54,2.07.82.53.22,1.06.44,1.59.68l1,.44c.82.36,1.65.74,2.46,1.13.6.28,1.19.57,1.79.88l.37.18c.65.33,1.3.67,1.94,1s1.13.61,1.69.94c1,.57,2,1.17,3,1.8.39.24.78.48,1.16.73l.21.13c.88.57,1.74,1.16,2.6,1.77.52.36,1,.73,1.54,1.1.78.58,1.55,1.17,2.31,1.78-.22-.55-7-16.93-35.4-25.27V8.33Z"/><path class="cls-2" d="M424.7,336.72,404.21,355l-2.37,2.11-3.59.73-55.31-60.29,1.79,71.12,1.74,69.47H310.64L297,378.32l-5.13-22.46-8.23-36-45.07,9.8V297.37c-.57-19-20.93-24-20.93-24l-47.68.29c-4.25-.25-8.21-.33-11.91-.27,5.09-2.67,11.89-6,20.19-9.66h0a360.53,360.53,0,0,1,55.11-18.9c12.14-3.08,23.4-6.15,33.53-9,21.16-6,37.38-11.29,46.3-14.29,5-1.68,7.71-2.65,7.71-2.65s24.62-8.21,39.39,17.23c4.78,8.23,13.2,21.65,22.42,36.06,8.52,13.32,17.71,27.47,25.31,39.12C417.62,326,424.7,336.72,424.7,336.72Z"/><path class="cls-3" d="M409.63,292.55,408,311.29c-7.6-11.65-16.79-25.8-25.31-39.12C406.63,276.45,409.63,292.55,409.63,292.55Z"/><polygon class="cls-4" points="398.25 357.83 344.73 368.66 342.94 297.54 398.25 357.83"/><line class="cls-5" x1="119.21" y1="112.88" x2="118.06" y2="112.88"/><path class="cls-5" d="M203.87,394.48c1.95.17,3.89.24,5.85.22"/><path class="cls-6" d="M188.22,82.54a38.44,38.44,0,0,0-4.43,8.94,44.31,44.31,0,0,0-2,8.08L178.89,122l-.1,0a52.74,52.74,0,0,1-12.36.41l.56,1.17h-.17a53.3,53.3,0,0,1-29.68-8.72H117.83l.23-2,3.41-28.15s-8.45-7.53,0-19.47c14.25-5,18.13,16,18.13,16l12-29.08,34.21,4.5C186.35,58,193.29,75.16,188.22,82.54Z"/><line class="cls-5" x1="138.57" y1="114.83" x2="137.14" y2="114.83"/><line class="cls-5" x1="117.83" y1="114.83" x2="112.16" y2="114.83"/><path class="cls-5" d="M178.79,122a52.7,52.7,0,0,1-11.8,1.58"/><path class="cls-5" d="M137.14,114.83a52,52,0,0,1-10.32-8.49"/><path class="cls-7" d="M169.94,135,167,179.6l-60.13-49.75,10.84-6.58.08-8.23,0-.21h19.31a53.3,53.3,0,0,0,29.68,8.72A41.42,41.42,0,0,1,169.94,135Z"/><path class="cls-8" d="M291.85,355.86c-54.54,8.36-53.3-17.58-53.3-17.58v-8.66l45.07-9.8Z"/><path class="cls-4" d="M297,378.32l-74.4,15.05a67.72,67.72,0,0,1-12.83,1.33h0a36.89,36.89,0,0,0-5.85-.22h0a66,66,0,0,1-12.44-2.17L82.21,362.36a42.19,42.19,0,0,1-29.29-28.67l-1.06-3.57L42.06,296,0,139.13c-.32-23.72,23.08-26.25,23.08-26.25h95l-.23,2,0,.21-.08,8.23c-41,5.5-76.86,30-76.86,30l61.38,114.51s4.53,9.68,24.58,8.73c0,0,2.93.1,6.73-.07h0a92.05,92.05,0,0,1,13.7-2.38c3.31-.34,6.89-.55,10.76-.61,3.7-.06,7.66,0,11.91.27l47.68-.29s20.36,5,20.93,24v40.91s-1.24,25.94,53.3,17.58Z"/><path class="cls-5" d="M205.85,182.94c-.69-.07-1.35-.13-2-.17"/><line class="cls-5" x1="132.2" y1="235" x2="128.87" y2="237.34"/><path class="cls-4" d="M256.85,173v49.61H216.69v-9.22a75.58,75.58,0,0,0,5.86-21.38s1.38-7.52-6.5-9.37V172.52Z"/><path class="cls-6" d="M222.55,192.05a75.58,75.58,0,0,1-5.86,21.38,42.92,42.92,0,0,1-3.08,5.88l-19.36,4.3A341.85,341.85,0,0,1,164,259.37c-8.67,8.76-14.38,13-16.74,14.66a92.05,92.05,0,0,0-13.7,2.38h0c-3.8.17-6.73.07-6.73.07L132.2,235l39.72-27.89h0l7.92-5.57,10-14.71s1.66-4.85,14-4v-.09h12.18C223.93,184.53,222.55,192.05,222.55,192.05Z"/><path class="cls-9" d="M296.59,168.66s0,0,0,0l0,.06-.1.16s-.07.11-.11.17l-1,1.52c-.09.13-.18.28-.27.43l-.41.65-.43.7-.88,1.44-.64,1.07c-.12.19-.23.38-.34.57-.24.39-.48.79-.72,1.21l0,.06-.86,1.48-1.23,2.14-.13.24-.54,1q-1.29,2.29-2.69,4.91c-.38.7-.75,1.41-1.13,2.13-.8,1.54-1.63,3.16-2.46,4.83-.42.83-.84,1.68-1.25,2.54-.05.12-.11.24-.17.36-.36.75-.73,1.51-1.09,2.28l-1,2.18c-.91,2-1.82,4-2.71,6.14-.36.84-.71,1.69-1.06,2.55-.25.6-.49,1.2-.73,1.81s-.39,1-.58,1.48-.39,1-.57,1.49-.38,1-.57,1.5c-.29.79-.58,1.59-.86,2.39l-.3.86-.3.86-.15.44-.48,1.44c-.4,1.22-.79,2.45-1.16,3.68-.26.86-.52,1.73-.76,2.59,0,0,0,0,0,0-.24.86-.47,1.73-.7,2.59-.12.43-.22.86-.33,1.3s-.21.86-.32,1.3q-.32,1.31-.6,2.61c21.16-6,37.38-11.29,46.3-14.29,1.12-7,3.07-16.37,6.18-22.59a29.46,29.46,0,0,1,1.52-2.63c8.82-14.07,41-51.57,41-51.57C318.93,133.91,297.17,167.75,296.59,168.66Zm17.19,27.65-1,1.28L282.57,210c.09-4.28,1.72-9.14,3.85-13.7a99.69,99.69,0,0,1,10.16-16.71c19.09-17.63,39.8-13.42,39.8-13.42Z"/><polyline class="cls-10" points="257.37 312.39 321.16 273.8 342.94 297.54"/><line class="cls-5" x1="399.5" y1="359.19" x2="398.25" y2="357.83"/><line class="cls-5" x1="201.46" y1="147.05" x2="199.41" y2="153.42"/><path class="cls-9" d="M296.57,168.67c-.76-.61-1.53-1.2-2.31-1.78-.5-.37-1-.74-1.54-1.1-.86-.61-1.72-1.2-2.6-1.77l-.21-.13c-.38-.25-.77-.49-1.16-.73-1-.63-2-1.23-3-1.8-.56-.33-1.12-.64-1.69-.94s-1.29-.69-1.94-1l-.37-.18c-.6-.31-1.19-.6-1.79-.88-.81-.39-1.64-.77-2.46-1.13l-1-.44c-.53-.24-1.06-.46-1.59-.68-.69-.28-1.38-.56-2.07-.82h0l-1.14-.43-1.14-.42c-.77-.28-1.54-.55-2.32-.81-.59-.2-1.18-.4-1.78-.58l-1.21-.38-1.66-.5-1.94-.55-.4-.11-.36-.09c-.8-.22-1.59-.43-2.39-.62s-1.84-.44-2.75-.65c-.51-.11-1-.23-1.54-.33q-.44-.1-.87-.18c-.44-.1-.89-.19-1.33-.27-.72-.15-1.44-.28-2.16-.41h-.06l-1-.17-1.59-.27c-4.84-.79-9.58-1.32-14.13-1.66a195.55,195.55,0,0,0-31.56.23l2.41-7.48c1.86-.17,3.68-.32,5.46-.44a189.92,189.92,0,0,1,25.72-.15c4.64.31,8.95.81,12.94,1.46,2.75.44,5.35,1,7.81,1.54q2.81.66,5.37,1.42C289.55,151.74,296.35,168.12,296.57,168.67Z"/><path class="cls-5" d="M296.59,168.66c8.19-30.5,53.86-36,53.86-36"/><path class="cls-10" d="M209.75,394.7A38.54,38.54,0,0,1,223.44,399l89.15,47.32"/><path class="cls-10" d="M40.86,472.44l147.19-73.89a38.36,38.36,0,0,1,15.78-4.07"/><path class="cls-10" d="M145.51,470.72l52.06-71.44a11.69,11.69,0,0,1,18.92,0l51.59,71.4"/><path class="cls-11" d="M403.64,462.62v9.82H318.87l-6.28-26.17-1.95-8.14h35.83C401.24,451.12,403.64,462.62,403.64,462.62Z"/><path class="cls-11" d="M489.91,334.35,426.3,388.08l-26.8-28.89,2.34-2.09,2.23-.45.14-1.66,20.49-18.27,47.74-10.92c6.27-2.47,12.15,1.14,12.15,1.14Z"/><polyline class="cls-12" points="248 140.44 248 1.5 422.14 1.5 422.14 203.87 329.1 203.87"/><path class="cls-5" d="M134.56,92s-9.35,1.17-13.08-7.3"/><path class="cls-5" d="M152.86,95.18s4.64,11.2,17.08,14.28"/><path class="cls-5" d="M174.65,78.29l9.15,13.19a33.29,33.29,0,0,1-15.5,6.09"/><path class="cls-13" d="M336.38,166.18l-22.6,30.13-1,1.28L282.57,210c.09-4.28,1.72-9.14,3.85-13.7a99.69,99.69,0,0,1,10.16-16.71C315.67,162,336.38,166.18,336.38,166.18Z"/><path class="cls-14" d="M185.77,56.62l0,.08-34.21-4.5-12,29.08s-3.88-21-18.13-16L119.6,46.15s14.18-28.11,50-14.51c0,0,15.24-1.65,23,5C192.57,36.6,191.47,52.4,185.77,56.62Z"/><path class="cls-8" d="M178.22,263.76c-8.3,3.63-15.1,7-20.19,9.66-3.87.06-7.45.27-10.76.61,2.36-1.62,8.07-5.9,16.74-14.66Z"/><path class="cls-9" d="M247.15,148.48a44.93,44.93,0,0,0-6.69,8.39,50.2,50.2,0,0,0-4.18,8.36c-.23.61-1.4,2.76-1.15,3.44A44.26,44.26,0,0,1,233,146.82C237.57,147.16,242.31,147.69,247.15,148.48Z"/><path class="cls-9" d="M296.58,168.68l0,.06-.1.16s-.07.11-.11.17l-1,1.52c-.09.13-.18.28-.27.43l-.41.65-.43.7-.88,1.44-.64,1.07c-.12.19-.23.38-.34.57-.24.39-.48.79-.72,1.21l0,.06-.86,1.48-1.23,2.14-.13.24-.54,1q-1.29,2.29-2.69,4.91c-.38.7-.75,1.41-1.13,2.13-.8,1.54-1.63,3.16-2.46,4.83-.42.83-.84,1.68-1.25,2.54-.05.12-.11.24-.17.36-.36.75-.73,1.51-1.09,2.28l-1,2.18c-.91,2-1.82,4-2.71,6.14-.36.84-.71,1.69-1.06,2.55-.25.6-.49,1.2-.73,1.81s-.39,1-.58,1.48-.39,1-.57,1.49-.38,1-.57,1.5c-.29.79-.58,1.59-.86,2.39l-.3.86-.3.86-.15.44-.48,1.44c-.4,1.22-.79,2.45-1.16,3.68-.26.86-.52,1.73-.76,2.59,0,0,0,0,0,0-.24.86-.47,1.73-.7,2.59-.12.43-.22.86-.33,1.3s-.21.86-.32,1.3q-.32,1.31-.6,2.61c-10.13,2.89-21.39,6-33.53,9a360.53,360.53,0,0,0-55.11,18.9h0L164,259.37a341.85,341.85,0,0,0,30.24-35.76l19.36-4.3a42.92,42.92,0,0,0,3.08-5.88v9.22h40.16V173l-40.8-.52v10.16H203.87v.09c-12.33-.8-14,4-14,4l-10,14.71-7.92,5.57,20.89-59s3.21-.54,8.64-1a195.55,195.55,0,0,1,31.56-.23,44.26,44.26,0,0,0,2.11,21.85c-.25-.68.92-2.83,1.15-3.44a50.2,50.2,0,0,1,4.18-8.36,44.93,44.93,0,0,1,6.69-8.39l1.59.27,1,.17h.06c.72.13,1.44.26,2.16.41.44.08.89.17,1.33.27s.58.11.87.18c.52.1,1,.22,1.54.33.91.21,1.83.42,2.75.65s1.59.4,2.39.62l.36.09.4.11,1.94.55,1.66.5,1.21.38c.6.18,1.19.38,1.78.58.78.26,1.55.53,2.32.81l1.14.42,1.14.43h0c.69.26,1.38.54,2.07.82.53.22,1.06.44,1.59.68l1,.44c.82.36,1.65.74,2.46,1.13.6.28,1.19.57,1.79.88l.37.18c.65.33,1.3.67,1.94,1s1.13.61,1.69.94c1,.57,2,1.17,3,1.8.39.24.78.48,1.16.73l.21.13c.88.57,1.74,1.16,2.6,1.77.52.36,1,.73,1.54,1.1.78.58,1.55,1.17,2.31,1.78Z"/><path class="cls-8" d="M209.33,139.13c-1.78.12-3.6.27-5.46.44l-2.41,7.48c-5.43.48-8.64,1-8.64,1l-20.89,59h0L132.2,235l-5.38,41.48c-20,.95-24.58-8.73-24.58-8.73L40.86,153.24s35.84-24.47,76.86-30l-10.84,6.58L167,179.6,169.94,135a41.42,41.42,0,0,0-3.12-11.49H167l1.23,2.58A265.84,265.84,0,0,1,209.33,139.13Z"/><polyline class="cls-15" points="103.47 169.81 117.05 212.54 122.83 217.61 122.83 226.56 132.7 231.15 132.2 235"/><path class="cls-5" d="M16.81,142.6,76.59,350.37l32.17-59.13s5-9.75,24.79-14.83"/><path class="cls-5" d="M296.57,168.67s-22.15,35.69-29.7,67.15"/><path class="cls-16" d="M389.53,56.89c-11.53,2.42-33.38,17.9-48.25,35.2s-35.78,19.73-35.78,19.73C214.41,113.7,234.38,173,234.38,173s9.1-31.56,40.75-30.87c0,0,31,7.51,28-19.58,0,0-17.53-41.67,23.68-61.71,0,0,29.37-16.39,69.44,16.17"/><line class="cls-17" x1="323.52" y1="458.64" x2="382.69" y2="463.47"/><line class="cls-17" x1="424.7" y1="375.49" x2="473" y2="333.1"/></g></g></svg>