<svg xmlns="http://www.w3.org/2000/svg" viewBox="0 0 249.57 190.78"><defs><style>.cls-1{fill:#ea5155;}.cls-2{fill:none;stroke:#fff;stroke-linecap:round;stroke-linejoin:round;stroke-width:7.36px;}.cls-3{fill:#a3e3fe;}.cls-4{fill:#296bfa;}.cls-5{fill:#fff;}</style></defs><g id="Layer_2" data-name="Layer 2"><g id="Layer_1-2" data-name="Layer 1"><path class="cls-1" d="M151.31,62.73V86.59H130.14v30.86H42.34V86.59H25.85V62.73a62.73,62.73,0,0,1,125.46,0Z"/><line class="cls-2" x1="151.31" y1="94.37" x2="151.31" y2="86.59"/><line class="cls-2" x1="25.85" y1="90.29" x2="25.85" y2="86.59"/><path class="cls-3" d="M42.34,86.59v68.18h-25V118.89H16.15a16.15,16.15,0,1,1,0-32.3Z"/><rect class="cls-4" x="17.33" y="154.77" width="25.01" height="17.69"/><path class="cls-3" d="M172.48,102.74a16.15,16.15,0,0,1-16.15,16.15h-1.18v35.88h-25V86.59h26.19a16.15,16.15,0,0,1,16.15,16.15Z"/><rect class="cls-4" x="130.14" y="154.77" width="25.01" height="17.69"/><rect class="cls-3" x="42.34" y="117.45" width="87.8" height="17.34"/><rect class="cls-1" x="42.34" y="134.79" width="87.8" height="37.67"/><rect class="cls-4" x="24.36" y="172.46" width="19.63" height="17.18"/><rect class="cls-4" x="121.25" y="172.46" width="19.9" height="17.18"/><circle class="cls-5" cx="58.1" cy="35.14" r="4.21"/><circle class="cls-5" cx="114.38" cy="35.14" r="4.21"/><circle class="cls-5" cx="87.07" cy="58.83" r="4.21"/><circle class="cls-5" cx="58.1" cy="82.31" r="4.21"/><circle class="cls-5" cx="114.38" cy="82.31" r="4.21"/><line class="cls-2" x1="245.36" y1="115.14" x2="222.2" y2="115.14"/><line class="cls-2" x1="204.46" y1="115.14" x2="181.84" y2="115.14"/><polygon class="cls-1" points="213.33 91.79 196.25 74.4 230.21 74.4 213.33 91.79"/><line class="cls-2" x1="213.33" y1="91.79" x2="213.33" y2="115.14"/><rect class="cls-4" x="204.46" y="115.14" width="17.74" height="71.28"/><line class="cls-2" x1="181.84" y1="187.1" x2="245.89" y2="187.1"/></g></g></svg>