<svg xmlns="http://www.w3.org/2000/svg" viewBox="0 0 253.89 197.64"><defs><style>.cls-1{fill:none;stroke:#015ca8;stroke-linecap:round;stroke-linejoin:round;stroke-width:8px;}</style></defs><g id="Layer_2" data-name="Layer 2"><g id="Layer_1-2" data-name="Layer 1"><path class="cls-1" d="M155.31,66.73V90.59H134.14v30.86H46.34V90.59H29.85V66.73a62.73,62.73,0,0,1,125.46,0Z"/><line class="cls-1" x1="155.31" y1="98.37" x2="155.31" y2="90.59"/><line class="cls-1" x1="29.85" y1="94.29" x2="29.85" y2="90.59"/><path class="cls-1" d="M46.34,90.59v68.18h-25V122.89H20.15a16.15,16.15,0,1,1,0-32.3Z"/><rect class="cls-1" x="21.33" y="158.77" width="25.01" height="17.69"/><path class="cls-1" d="M176.48,106.74a16.15,16.15,0,0,1-16.15,16.15h-1.18v35.88h-25V90.59h26.19a16.15,16.15,0,0,1,16.15,16.15Z"/><rect class="cls-1" x="134.14" y="158.77" width="25.01" height="17.69"/><rect class="cls-1" x="46.34" y="121.45" width="87.8" height="17.34"/><rect class="cls-1" x="46.34" y="138.79" width="87.8" height="37.67"/><rect class="cls-1" x="28.36" y="176.46" width="19.63" height="17.18"/><rect class="cls-1" x="125.25" y="176.46" width="19.9" height="17.18"/><circle class="cls-1" cx="62.1" cy="39.14" r="4.21"/><circle class="cls-1" cx="118.38" cy="39.14" r="4.21"/><circle class="cls-1" cx="91.07" cy="62.83" r="4.21"/><circle class="cls-1" cx="62.1" cy="86.31" r="4.21"/><circle class="cls-1" cx="118.38" cy="86.31" r="4.21"/><line class="cls-1" x1="249.36" y1="119.14" x2="226.2" y2="119.14"/><line class="cls-1" x1="208.46" y1="119.14" x2="185.84" y2="119.14"/><polygon class="cls-1" points="217.33 95.79 200.25 78.4 234.21 78.4 217.33 95.79"/><line class="cls-1" x1="217.33" y1="95.79" x2="217.33" y2="119.14"/><rect class="cls-1" x="208.46" y="119.14" width="17.74" height="71.28"/><line class="cls-1" x1="185.84" y1="191.1" x2="249.89" y2="191.1"/></g></g></svg>