<svg xmlns="http://www.w3.org/2000/svg" viewBox="0 0 242.82 259.17"><defs><style>.cls-1{fill:none;stroke:#015ca8;stroke-linecap:round;stroke-linejoin:round;stroke-width:8px;}</style></defs><g id="Layer_2" data-name="Layer 2"><g id="Layer_1-2" data-name="Layer 1"><rect class="cls-1" x="109.07" y="4" width="129.75" height="97.76"/><rect class="cls-1" x="121.36" y="101.76" width="108.32" height="131.18"/><rect class="cls-1" x="126.1" y="19.73" width="66.01" height="66.01"/><rect class="cls-1" x="146.97" y="182.28" width="54.7" height="35.06"/><polyline class="cls-1" points="162.21 182.28 162.21 155.4 185.84 155.4 185.84 182.28"/><polyline class="cls-1" points="146.97 136.09 146.97 147.85 96.43 147.85 96.43 81.11 40.86 81.11 40.86 96.48 76.63 96.48 76.63 172.44 200.17 172.44 200.17 136.68"/><circle class="cls-1" cx="214.35" cy="35.18" r="7.72"/><circle class="cls-1" cx="214.35" cy="69.8" r="7.72"/><circle class="cls-1" cx="146.97" cy="126.77" r="7.72"/><circle class="cls-1" cx="200.17" cy="126.77" r="7.72"/><circle class="cls-1" cx="203.3" cy="244.05" r="11.11"/><circle class="cls-1" cx="146.97" cy="244.05" r="11.11"/><polyline class="cls-1" points="137.77 50.25 147.81 50.25 154.1 38.52 163.12 66.08 168.22 50.08 180.13 49.91"/><path class="cls-1" d="M28.08,96.93s-55.3,42.09,1.71,85.35C29.79,182.28,87.67,145.81,28.08,96.93Z"/><polyline class="cls-1" points="18.42 106.32 18.42 69.8 40.86 69.8 40.86 109.14"/></g></g></svg>