<svg xmlns="http://www.w3.org/2000/svg" viewBox="0 0 234.82 251.17"><defs><style>.cls-1{fill:#a3e3fe;}.cls-2{fill:#ea5155;}.cls-3,.cls-4{fill:none;stroke-linecap:round;stroke-linejoin:round;}.cls-3{stroke:#296bfa;stroke-width:7px;}.cls-4{stroke:#fff;stroke-width:7.36px;}.cls-5{fill:#296bfa;}</style></defs><g id="Layer_2" data-name="Layer 2"><g id="Layer_1-2" data-name="Layer 1"><rect class="cls-1" x="105.07" width="129.75" height="97.76"/><rect class="cls-2" x="117.36" y="97.76" width="108.32" height="131.18"/><rect class="cls-3" x="122.1" y="15.73" width="66.01" height="66.01"/><rect class="cls-4" x="142.97" y="178.28" width="54.7" height="35.06"/><polyline class="cls-4" points="158.21 178.28 158.21 151.4 181.84 151.4 181.84 178.28"/><polyline class="cls-3" points="142.97 132.09 142.97 143.85 92.43 143.85 92.43 77.11 36.86 77.11 36.86 92.48 72.63 92.48 72.63 168.44 196.17 168.44 196.17 132.68"/><circle class="cls-2" cx="210.35" cy="31.18" r="7.72"/><circle class="cls-2" cx="210.35" cy="65.8" r="7.72"/><circle class="cls-4" cx="142.97" cy="122.77" r="7.72"/><circle class="cls-4" cx="196.17" cy="122.77" r="7.72"/><circle class="cls-5" cx="199.3" cy="240.05" r="11.11"/><circle class="cls-5" cx="142.97" cy="240.05" r="11.11"/><polyline class="cls-3" points="133.77 46.25 143.81 46.25 150.1 34.52 159.12 62.08 164.22 46.08 176.13 45.91"/><path class="cls-5" d="M24.08,92.93s-55.3,42.09,1.71,85.35C25.79,178.28,83.67,141.81,24.08,92.93Z"/><polyline class="cls-3" points="14.42 102.32 14.42 65.8 36.86 65.8 36.86 105.14"/></g></g></svg>