<svg xmlns="http://www.w3.org/2000/svg" viewBox="0 0 184.11 189.25"><defs><style>.cls-1{fill:#48dbfb;}.cls-2{fill:#2e2e2e;}</style></defs><g id="Layer_2" data-name="Layer 2"><g id="Layer_1-2" data-name="Layer 1"><circle class="cls-1" cx="74.24" cy="74.24" r="74.24"/><path class="cls-2" d="M20.26,158l7.27,9.7-7.6,17.72a2.74,2.74,0,0,0,.68,3.11,2.74,2.74,0,0,0,3.16.37l54.8-30.14a2.74,2.74,0,0,0,0-4.8l-54.8-30.14a2.74,2.74,0,0,0-3.84,3.48L27.53,145l-7.27,9.69a2.74,2.74,0,0,0,0,3.29Zm12.38,11.67,25.72-6.05L28.1,180.27Zm25.72-20.57-25.72-6.05L28.1,132.47Zm-26.58-.62,33.5,7.88-33.5,7.88-5.91-7.88Z"/><path class="cls-2" d="M140.27,24.85A43.85,43.85,0,0,0,96.57,66H89.34l-7.42-7.42-3.87,3.88L81.59,66H70.4a28.77,28.77,0,0,0,0,57.54h30.37l7.42,7.42,3.87-3.88-3.54-3.54h52.3a15.07,15.07,0,0,1,0,30.14h-24.9l-7.42-7.42-3.87,3.88,3.54,3.54H85.47v5.48h42.7l-3.54,3.54,3.87,3.88,7.42-7.42h24.9a20.55,20.55,0,1,0,0-41.1h-52.3l3.54-3.54-3.87-3.88L100.77,118H70.4a23.29,23.29,0,0,1,0-46.58H81.59L78.05,75l3.87,3.88,7.42-7.42h7.23a43.81,43.81,0,1,0,43.7-46.58Zm0,82.2a38.38,38.38,0,0,1-38.22-35.62h8.22a30.14,30.14,0,1,0,0-5.48h-8.22a38.34,38.34,0,1,1,38.22,41.1ZM134,78.85l8.22-8.22a2.75,2.75,0,0,0,0-3.88L134,58.53l-3.87,3.88L133.65,66H115.77a24.66,24.66,0,1,1,0,5.48h17.88L130.11,75Z"/><path class="cls-2" d="M156.71,68.69a16.46,16.46,0,0,0-16.44-16.44v5.48a11,11,0,0,1,0,21.92v5.48A16.47,16.47,0,0,0,156.71,68.69Z"/></g></g></svg>