<svg xmlns="http://www.w3.org/2000/svg" viewBox="0 0 258.79 250.93"><defs><style>.cls-1{fill:#a3e3fe;}.cls-2{fill:#296bfa;}.cls-3{fill:#4fbd83;}.cls-4,.cls-6{fill:none;stroke-linecap:round;stroke-linejoin:round;}.cls-4{stroke:#296bfa;stroke-width:7px;}.cls-5{fill:#ea5155;}.cls-6{stroke:#fff;stroke-width:7.36px;}</style></defs><g id="Layer_2" data-name="Layer 2"><g id="Layer_1-2" data-name="Layer 1"><path class="cls-1" d="M258.79,52.46v188a10.51,10.51,0,0,1-10.51,10.5H80.74a10.5,10.5,0,0,1-10.5-10.5V12.68A12.68,12.68,0,0,1,83.17,0L209,2.56V44a8.49,8.49,0,0,0,8.48,8.49Z"/><path class="cls-2" d="M258.79,52.36v.1H217.47A8.49,8.49,0,0,1,209,44V2.56Z"/><circle class="cls-3" cx="49.89" cy="78.17" r="49.89"/><polyline class="cls-4" points="49.89 28.28 49.89 78.17 99.77 78.17"/><line class="cls-4" x1="182.25" y1="200.92" x2="221.47" y2="158.16"/><line class="cls-4" x1="168.05" y1="202.4" x2="147.19" y2="178.59"/><line class="cls-4" x1="111.43" y1="202.4" x2="133.48" y2="178.59"/><line class="cls-4" x1="121.32" y1="35.91" x2="182.88" y2="35.91"/><line class="cls-4" x1="121.32" y1="56.13" x2="182.88" y2="56.13"/><line class="cls-4" x1="140.16" y1="86.43" x2="221.92" y2="86.43"/><line class="cls-4" x1="140.16" y1="106.9" x2="221.92" y2="106.9"/><circle class="cls-5" cx="123.72" cy="86.43" r="5.54"/><circle class="cls-5" cx="123.72" cy="107.15" r="5.54"/><path class="cls-6" d="M22.52,78.17s.19,32.38,32.38,32.38"/><circle class="cls-5" cx="176.08" cy="210.46" r="11.37"/><circle class="cls-5" cx="227.66" cy="148.62" r="11.37"/><circle class="cls-5" cx="103.4" cy="210.46" r="11.37"/><circle class="cls-5" cx="140.34" cy="169.53" r="11.37"/></g></g></svg>