<svg xmlns="http://www.w3.org/2000/svg" viewBox="0 0 266.79 258.93"><defs><style>.cls-1{fill:none;stroke:#015ca8;stroke-linecap:round;stroke-linejoin:round;stroke-width:8px;}</style></defs><g id="Layer_2" data-name="Layer 2"><g id="Layer_1-2" data-name="Layer 1"><path class="cls-1" d="M74.24,34.4V16.68A12.68,12.68,0,0,1,87.17,4L213,6.56V48a8.49,8.49,0,0,0,8.48,8.49h41.32v188a10.51,10.51,0,0,1-10.51,10.5H84.74a10.5,10.5,0,0,1-10.5-10.5v-115"/><path class="cls-1" d="M262.79,56.36v.1H221.47A8.49,8.49,0,0,1,213,48V6.56Z"/><circle class="cls-1" cx="53.89" cy="82.17" r="49.89"/><polyline class="cls-1" points="53.89 32.28 53.89 82.17 103.77 82.17"/><line class="cls-1" x1="186.25" y1="204.92" x2="225.47" y2="162.16"/><line class="cls-1" x1="172.05" y1="206.4" x2="151.19" y2="182.59"/><line class="cls-1" x1="115.43" y1="206.4" x2="137.48" y2="182.59"/><line class="cls-1" x1="125.32" y1="39.91" x2="186.88" y2="39.91"/><line class="cls-1" x1="125.32" y1="60.13" x2="186.88" y2="60.13"/><line class="cls-1" x1="144.16" y1="90.43" x2="225.92" y2="90.43"/><line class="cls-1" x1="144.16" y1="110.9" x2="225.92" y2="110.9"/><circle class="cls-1" cx="127.72" cy="90.43" r="5.54"/><circle class="cls-1" cx="127.72" cy="111.15" r="5.54"/><path class="cls-1" d="M26.52,82.17s.19,32.38,32.38,32.38"/><circle class="cls-1" cx="180.08" cy="214.46" r="11.37"/><circle class="cls-1" cx="231.66" cy="152.62" r="11.37"/><circle class="cls-1" cx="107.4" cy="214.46" r="11.37"/><circle class="cls-1" cx="144.34" cy="173.53" r="11.37"/></g></g></svg>