<?xml version="1.0" encoding="utf-8"?>
<!-- Generator: Adobe Illustrator 25.0.1, SVG Export Plug-In . SVG Version: 6.00 Build 0)  -->
<svg version="1.1" id="Layer_1" xmlns="http://www.w3.org/2000/svg" xmlns:xlink="http://www.w3.org/1999/xlink" x="0px" y="0px"
	 viewBox="0 0 1923.4 1373" style="enable-background:new 0 0 1923.4 1373;" xml:space="preserve">
<style type="text/css">
	.st0{fill:#FFFFFF;}
	.st1{fill:#FFD8EF;}
	.st2{fill:#FFEBF8;}
	.st3{fill:none;stroke:#0C499A;stroke-miterlimit:10;}
	.st4{fill:none;}
	.st5{fill:#0C499A;}
	.st6{fill:none;stroke:#FFEBF5;stroke-width:3.0481;stroke-miterlimit:10;}
</style>
<rect class="st0" width="1923.4" height="1373"/>
<circle class="st1" cx="186.3" cy="846" r="100"/>
<circle class="st2" cx="626.4" cy="815.9" r="23.6"/>
<ellipse transform="matrix(0.1602 -0.9871 0.9871 0.1602 47.7953 783.5018)" class="st2" cx="484.3" cy="363.7" rx="23.6" ry="23.6"/>
<circle class="st2" cx="1701.7" cy="243" r="23.6"/>
<circle class="st2" cx="1504.9" cy="869.6" r="23.6"/>
<path class="st3" d="M-169.6,530.1c0,0,212.7,83.4,356.2-119.1s22.6-330-63.5-310.6c0,0-91.8,67.2,46.7,104.2
	s402.3-83.7,291.7-360.4"/>
<rect class="st4" width="1923.4" height="1171.9"/>
<path class="st5" d="M1579.9,354.7v145.9c0,77-46.8,143.1-113.5,171.3c-22.2,9.4-46.7,14.6-72.4,14.6
	c-102.7,0-185.9-83.2-185.9-185.9V295c0,0,48-31.4,148.7,6.4C1356.8,301.5,1520.1,253.1,1579.9,354.7z"/>
<path class="st1" d="M1579.9-2.6v357.3c-59.8-101.5-223.1-53.2-223.1-53.2c-100.7-37.9-148.7-6.4-148.7-6.4V-2.6H1579.9z"/>
<g>
	<path class="st3" d="M1665.2,298.1c-41.3,16.4-90.4,11.6-127.9-12.3c-48.5-30.9-72.3-89.1-63-145.3c3.2-19.2,10.3-49.8,31.6-56.9
		c7.3-2.4,15.7-1.2,22,3.3c19.9,14,9.8,43.4-4.8,56.9c-13.2,12.2-31.6,19.9-49.4,21.5c-90.7,7.8-175.7-90.8-176.4-176.9
		c-0.7-82.5,59.7-153.6,120.7-202.3c48.2-38.6,104.9-71,165.1-86.1c12.8-3.2,25.8-5.8,38.9-7.6"/>
	<path class="st3" d="M1586.2-81.8c0,0-20.8,144.6,79.2,111.3"/>
</g>
<path class="st6" d="M-83,1185.9c0,0,234.3,12.3,269.3,240.5"/>
</svg>
