<svg xmlns="http://www.w3.org/2000/svg" viewBox="0 0 279.64 207.78"><defs><style>.cls-1{fill:none;stroke:#015ca8;stroke-linecap:round;stroke-linejoin:round;stroke-width:8px;}</style></defs><g id="Layer_2" data-name="Layer 2"><g id="Layer_1-2" data-name="Layer 1"><path class="cls-1" d="M224.52,84.63V203.78H81a27.43,27.43,0,0,1-27.43-27.43V160.74"/><path class="cls-1" d="M53.55,84.63V21.21A17.22,17.22,0,0,1,70.76,4H207.31a17.21,17.21,0,0,1,17.21,17.21V31.28"/><path class="cls-1" d="M275.64,103.9v48.78a51.12,51.12,0,0,1-51.12,51.1V103.9Z"/><path class="cls-1" d="M128.7,103.61v16.6L101.16,136a13.41,13.41,0,0,0-6.74,11.63v31.93"/><path class="cls-1" d="M148.8,103.61V119l29.29,15.7a10.55,10.55,0,0,1,5.57,9.3v35.59"/><polyline class="cls-1" points="119.25 125.63 138.02 178.21 156.89 123.32"/><line class="cls-1" x1="126.73" y1="146.58" x2="148.89" y2="146.58"/><line class="cls-1" x1="161.91" y1="126.01" x2="161.91" y2="148.38"/><path class="cls-1" d="M158.84,178.93l-3.23-2.05V155.33a6.62,6.62,0,0,1,6.62-6.62h0a6.62,6.62,0,0,1,6.62,6.62v21.3l-3.94,2.94"/><line class="cls-1" x1="155.61" y1="158.69" x2="168.85" y2="158.69"/><line class="cls-1" x1="116.44" y1="127.24" x2="116.44" y2="160.74"/><circle class="cls-1" cx="115.95" cy="167.19" r="5.52"/><path class="cls-1" d="M116.44,73.78s17-.12,22.47-18.23c0,0,7.62,18.36,21.35,18.23v9.59a21.29,21.29,0,0,1-21.3,21.3h-1.22a21.3,21.3,0,0,1-21.3-21.3Z"/><path class="cls-1" d="M111.56,128.8c-3.16-4.88-4.42-9.78-4.42-16V67.64a31.22,31.22,0,0,1,31.21-31.21h0a31.21,31.21,0,0,1,31.21,31.21v45.14A31.11,31.11,0,0,1,166,127.24"/><path class="cls-1" d="M133,93.34s4.61,5.34,9.63,0"/><rect class="cls-1" x="4" y="87.6" width="77.56" height="71.44" rx="15.14"/><path class="cls-1" d="M189.21,39.86V72.75a8.59,8.59,0,0,0,8.59,8.59h13.66L200.33,97.1l28.74-13.91h26.64a8.58,8.58,0,0,0,8.59-8.59V39.86a8.58,8.58,0,0,0-8.59-8.58H197.8A8.58,8.58,0,0,0,189.21,39.86Z"/><polygon class="cls-1" points="54.78 107.77 58.36 115.02 66.36 116.18 60.57 121.83 61.94 129.8 54.78 126.03 47.63 129.8 48.99 121.83 43.2 116.18 51.2 115.02 54.78 107.77"/><polygon class="cls-1" points="30.36 107.77 33.94 115.02 41.94 116.18 36.15 121.83 37.52 129.8 30.36 126.03 23.2 129.8 24.57 121.83 18.78 116.18 26.78 115.02 30.36 107.77"/><circle class="cls-1" cx="213.92" cy="52.7" r="4.45"/><circle class="cls-1" cx="226.45" cy="52.7" r="4.45"/><circle class="cls-1" cx="239.6" cy="52.7" r="4.45"/></g></g></svg>