<svg xmlns="http://www.w3.org/2000/svg" viewBox="0 0 271.64 199.78"><defs><style>.cls-1{fill:#9ee6fe;}.cls-2{fill:#296bfa;}.cls-3{fill:none;stroke:#296bfa;stroke-linecap:round;stroke-linejoin:round;stroke-width:4.58px;}.cls-4{fill:#eb4f54;}.cls-5{fill:#49b581;}</style></defs><g id="Layer_2" data-name="Layer 2"><g id="Layer_1-2" data-name="Layer 1"><path class="cls-1" d="M220.52,17.21V199.78H77a27.43,27.43,0,0,1-27.43-27.43V17.21A17.22,17.22,0,0,1,66.76,0H203.31A17.21,17.21,0,0,1,220.52,17.21Z"/><path class="cls-2" d="M271.64,99.9v48.78a51.12,51.12,0,0,1-51.12,51.1V99.9Z"/><path class="cls-3" d="M124.7,99.61v16.6L97.16,132a13.41,13.41,0,0,0-6.74,11.63v31.93"/><path class="cls-3" d="M144.8,99.61V115l29.29,15.7a10.55,10.55,0,0,1,5.57,9.3v35.59"/><polyline class="cls-3" points="115.25 121.63 134.02 174.21 152.89 119.32"/><line class="cls-3" x1="122.73" y1="142.58" x2="144.89" y2="142.58"/><line class="cls-3" x1="157.91" y1="122.01" x2="157.91" y2="144.38"/><path class="cls-3" d="M154.84,174.93l-3.23-2.05V151.33a6.62,6.62,0,0,1,6.62-6.62h0a6.62,6.62,0,0,1,6.62,6.62v21.3l-3.94,2.94"/><line class="cls-3" x1="151.61" y1="154.69" x2="164.85" y2="154.69"/><line class="cls-3" x1="112.44" y1="123.24" x2="112.44" y2="156.74"/><circle class="cls-3" cx="111.95" cy="163.19" r="5.52"/><path class="cls-3" d="M112.44,69.78s17-.12,22.47-18.23c0,0,7.62,18.36,21.35,18.23v9.59a21.29,21.29,0,0,1-21.3,21.3h-1.22a21.3,21.3,0,0,1-21.3-21.3Z"/><path class="cls-3" d="M107.56,124.8c-3.16-4.88-4.42-9.78-4.42-16V63.64a31.22,31.22,0,0,1,31.21-31.21h0a31.21,31.21,0,0,1,31.21,31.21v45.14A31.11,31.11,0,0,1,162,123.24"/><path class="cls-3" d="M129,89.34s4.61,5.34,9.63,0"/><rect class="cls-4" y="83.6" width="77.56" height="71.44" rx="15.14"/><path class="cls-5" d="M185.21,35.86V68.75a8.59,8.59,0,0,0,8.59,8.59h13.66L196.33,93.1l28.74-13.91h26.64a8.58,8.58,0,0,0,8.59-8.59V35.86a8.58,8.58,0,0,0-8.59-8.58H193.8A8.58,8.58,0,0,0,185.21,35.86Z"/><polygon class="cls-3" points="34.13 91.71 41.28 106.22 57.29 108.54 45.71 119.83 48.44 135.77 34.13 128.24 19.81 135.77 22.55 119.83 10.97 108.54 26.97 106.22 34.13 91.71"/><circle class="cls-2" cx="209.92" cy="48.7" r="4.45"/><circle class="cls-2" cx="222.45" cy="48.7" r="4.45"/><circle class="cls-2" cx="235.6" cy="48.7" r="4.45"/></g></g></svg>