<svg xmlns="http://www.w3.org/2000/svg" viewBox="0 0 97.23 146.29"><defs><style>.cls-1{fill:#48dbfb;}.cls-2,.cls-7{fill:none;}.cls-2,.cls-3,.cls-4,.cls-5,.cls-6,.cls-7{stroke:#000;stroke-miterlimit:10;}.cls-3{fill:#00c7fb;}.cls-4{fill:#fff;}.cls-5{fill:#fdd230;}.cls-6{fill:#3f94eb;}.cls-7{stroke-width:0.95px;}</style></defs><g id="Layer_2" data-name="Layer 2"><g id="Layer_1-2" data-name="Layer 1"><circle class="cls-1" cx="55.3" cy="41.56" r="41.56"/><line class="cls-2" x1="63.49" y1="138.38" x2="54.77" y2="138.38"/><path class="cls-3" d="M94.72,145.79H61.15c-5.25-1.12-6.38-7.41-6.38-7.41H32.54c-3.65.57-3.37,3.66-3.37,3.66v3.75H13.51C13.22,133,25.7,131,25.7,131H82.9C95.38,134.35,94.72,145.79,94.72,145.79Z"/><path class="cls-4" d="M96.73,79.93a44.62,44.62,0,0,1-25,40.08,43.26,43.26,0,0,1-7.58,2.89,44.61,44.61,0,0,1-12,1.64,44.12,44.12,0,0,1-6.94-.54,43.58,43.58,0,0,1-7.85-2A44.69,44.69,0,0,1,13.5,102.26h14A33.23,33.23,0,1,0,65.9,49.68a5.45,5.45,0,0,0,.61-2.52A5.58,5.58,0,0,0,63,42l2.52-2.51,1.56-1.57A44.64,44.64,0,0,1,96.73,79.93Z"/><path class="cls-5" d="M38.76,96.88v1a4.38,4.38,0,0,1-4.37,4.38H4.88A4.38,4.38,0,0,1,.5,97.88v-1A4.38,4.38,0,0,1,4.88,92.5H34.39A4.38,4.38,0,0,1,38.76,96.88Z"/><path class="cls-3" d="M65.49,39.45,63,42a5.49,5.49,0,0,0-2.07-.4,5.6,5.6,0,0,0-5.6,5.6,5.49,5.49,0,0,0,.4,2.07l-1.2,1.21L36.84,32.69,47.66,21.87Z"/><path class="cls-6" d="M54.5,50.44,42,62.9a2.67,2.67,0,0,1-3.77,0l-3.06-3.06-7.09-7.08L24.33,49a2.66,2.66,0,0,1,0-3.76L36.84,32.69Z"/><path class="cls-6" d="M68.65,36.28l-1.6,1.6-1.56,1.57L47.66,21.87,51,18.58a2.66,2.66,0,0,1,3.76,0l2.53,2.53,9.27,9.27,2.14,2.14A2.66,2.66,0,0,1,68.65,36.28Z"/><line class="cls-6" x1="36.84" y1="32.69" x2="36.84" y2="32.68"/><line class="cls-7" x1="47.66" y1="21.87" x2="47.65" y2="21.87"/><line class="cls-7" x1="64.47" y1="14.08" x2="64.22" y2="14.32"/><polygon class="cls-6" points="73.51 23.42 66.51 30.38 57.24 21.11 64.22 14.32 73.51 23.42"/><line class="cls-7" x1="78.03" y1="27.84" x2="73.51" y2="23.42"/><line class="cls-7" x1="64.22" y1="14.32" x2="59.38" y2="9.58"/><path class="cls-5" d="M66.51,47.16a5.45,5.45,0,0,1-.61,2.52,5.6,5.6,0,0,1-10.2-.45,5.49,5.49,0,0,1-.4-2.07,5.6,5.6,0,0,1,5.6-5.6A5.49,5.49,0,0,1,63,42,5.58,5.58,0,0,1,66.51,47.16Z"/><rect x="28.61" y="51.09" width="3.58" height="12.95" rx="1.46" transform="translate(-31.8 38.36) rotate(-45)"/><path d="M71.72,120v11H64.14V122.9A43.26,43.26,0,0,0,71.72,120Z"/><path d="M45.18,124v7H37.33V122A43.58,43.58,0,0,0,45.18,124Z"/></g></g></svg>