<svg xmlns="http://www.w3.org/2000/svg" xmlns:xlink="http://www.w3.org/1999/xlink" viewBox="0 0 2426.87 1454.71"><defs><style>.cls-1,.cls-10,.cls-11,.cls-12,.cls-6,.cls-9{fill:none;}.cls-2{clip-path:url(#clip-path);}.cls-3{fill:#fff;}.cls-4{fill:#fab7e2;}.cls-5{fill:#fee7f8;}.cls-11,.cls-12,.cls-6,.cls-9{stroke:#231078;}.cls-10,.cls-11,.cls-12,.cls-6,.cls-9{stroke-miterlimit:10;}.cls-6{stroke-width:1.41px;}.cls-7{fill:#78d87a;}.cls-8{fill:#ef36b0;}.cls-10,.cls-9{stroke-width:1.4px;}.cls-10{stroke:#fff;}.cls-11{stroke-width:1.79px;}.cls-12{stroke-width:3.37px;}</style><clipPath id="clip-path" transform="translate(339.03 282.81)"><rect class="cls-1" width="1923.42" height="1171.9"/></clipPath></defs><g id="Layer_2" data-name="Layer 2"><g id="Layer_1-2" data-name="Layer 1"><g class="cls-2"><rect class="cls-3" x="339.03" y="282.81" width="1923.42" height="1171.9"/><circle class="cls-4" cx="2281.11" cy="930.72" r="145.76"/><circle class="cls-4" cx="240.96" cy="781.58" r="240.96"/><circle class="cls-4" cx="1117.52" cy="229.46" r="100.04"/><circle class="cls-5" cx="990.33" cy="1184.85" r="27.15"/><circle class="cls-5" cx="680.98" cy="525.85" r="27.15"/><circle class="cls-5" cx="2111.74" cy="553" r="27.15"/><circle class="cls-5" cx="1820.37" cy="1321.13" r="27.15"/><path class="cls-6" d="M1943.23-74.24S1935.54-.74,1837,95.18l-47,37.69s-40.32,5.5-48.22,24c0,0-2.77,22.67,26.78,2.06,12.93-9,19.59-19.4,23-28.23" transform="translate(339.03 282.81)"/><path class="cls-7" d="M1831.08,100s-52.8-16.57-57.9,1.92S1805.45,116.51,1831.08,100Z" transform="translate(339.03 282.81)"/><path class="cls-7" d="M1834.13,97.5s-27.41,28.13-24.54,49.38,20.58,3.76,22.79-17.26S1831.89,115.17,1834.13,97.5Z" transform="translate(339.03 282.81)"/><path class="cls-7" d="M1866.79,63.9s-28.16-5.35-49.25,1.72-10.63,23.73,8.58,19.49S1866.79,63.9,1866.79,63.9Z" transform="translate(339.03 282.81)"/><path class="cls-7" d="M1889.11,36.51s-29.49,39.23-23.67,58.64S1893.92,92.94,1889.11,36.51Z" transform="translate(339.03 282.81)"/><path class="cls-7" d="M1897.11,25.52s-47.47-5.58-52.74,12.06S1868.61,52.92,1897.11,25.52Z" transform="translate(339.03 282.81)"/><path class="cls-7" d="M1913.19.67s-17.72,41.06-10,52.46,18.2,4.16,19.51-13.15S1913.19.67,1913.19.67Z" transform="translate(339.03 282.81)"/><path class="cls-7" d="M1927-25.33s-40.79-.43-48.39,14,9.08,15.87,18.51,12S1927-25.33,1927-25.33Z" transform="translate(339.03 282.81)"/><path class="cls-7" d="M1934.73-43.58s-9.86,38.78-4.25,47.94,21.28,11.5,19.51-24C1950-19.61,1952.59-35.64,1934.73-43.58Z" transform="translate(339.03 282.81)"/><path class="cls-8" d="M1615.71,812.76s-13,10.65,3.34,17.93,55.25,0,55.25,0l19.66-3.61s14.87-42.93,9.77-62.72c0,0-4-24.27-18-15.93l-21.1-29.2s-38.52,9.57-55.2,30.18a104.41,104.41,0,0,0-20.61,42.69Z" transform="translate(339.03 282.81)"/><path class="cls-9" d="M1670.54,831.32s13.83,14,32.34,8.72c0,0,6-13.24-4.3-28.29" transform="translate(339.03 282.81)"/><path class="cls-10" d="M1615.71,812.76a89,89,0,0,1,22.82-7.27c6.56-1.06,16.85-2.25,22.67,1.84a5.84,5.84,0,0,1,2.63,4.52c0,3.1-2.95,4.27-5.55,4.54-10.37,1.06-20.57-5.29-24.91-14.64a11.5,11.5,0,0,1-1-7.63,10,10,0,0,1,4-5.59c5.63-4,13.24-3,19.2-.33,10.63,4.81,18.67,14.32,26.08,23A187.67,187.67,0,0,1,1694,827.08" transform="translate(339.03 282.81)"/><path class="cls-10" d="M1656.75,788.88s-14.86-26,5.38-25.43,24.68,18.7,20.8,25.43-18-12.5,2.79-40.45" transform="translate(339.03 282.81)"/><path class="cls-10" d="M1627,756.15s-23.49,20.49-10.1,23,38.9-38.25,34.61-44.8c0,0-30-1.64-49.64,40.43s42.73-1.64,49.64-13.39a58.59,58.59,0,0,0,13.13-42.11" transform="translate(339.03 282.81)"/><path class="cls-9" d="M1702.88,840s85.68,128.24,89.72,197.52" transform="translate(339.03 282.81)"/><path class="cls-9" d="M1747.74,915.65s-4.06-76.58,27.85-115.61" transform="translate(339.03 282.81)"/><circle class="cls-9" cx="2117.62" cy="1076.55" r="8.46"/><path class="cls-9" d="M1764.25,948.44s-57.36-61.16-113.86-32.79c0,0-21,19.57,1.79,32.79S1736,944.42,1764.25,948.44Z" transform="translate(339.03 282.81)"/><path class="cls-9" d="M1764.25,948.44s-66.51-33.15-122.66-17.61" transform="translate(339.03 282.81)"/><path class="cls-11" d="M1795.54,1038.32s46.33-81.39,15.63-252.91l-20.55-73.47s-37.48-35.42-31.93-60.36c0,0,13.88-25.39,29.11,17.64,6.66,18.83,5.86,34.44,2.84,46" transform="translate(339.03 282.81)"/><path class="cls-7" d="M1808.57,776.12s-66.62-21.91-58.23-44.72S1794.39,740.14,1808.57,776.12Z" transform="translate(339.03 282.81)"/><path class="cls-7" d="M1809.9,780.89s-7.48-49.22,11.17-69,24,11.32,10.74,34.61S1820.64,761,1809.9,780.89Z" transform="translate(339.03 282.81)"/><path class="cls-7" d="M1818.75,839.6s-33-15.27-49.47-38.11,6.56-32.3,23.23-13.75S1818.75,839.6,1818.75,839.6Z" transform="translate(339.03 282.81)"/><path class="cls-7" d="M1821.53,884.29s-1.43-62.17,18.89-77.87S1868.13,829.71,1821.53,884.29Z" transform="translate(339.03 282.81)"/><path class="cls-7" d="M1821.65,901.52s-53-29.29-45.42-51.35S1812.52,852.26,1821.65,901.52Z" transform="translate(339.03 282.81)"/><path class="cls-7" d="M1819.88,939s12-55.37,28.37-61.45,21.81,9.14,10.39,28S1819.88,939,1819.88,939Z" transform="translate(339.03 282.81)"/><path class="cls-7" d="M1814.91,976s-42.34-29.66-39.5-50.15,21.07-9.65,27.9,1.32S1814.91,976,1814.91,976Z" transform="translate(339.03 282.81)"/><path class="cls-7" d="M1809.41,1000.46s18.46-47.22,31-52.52,30.4,3.86,2.4,39.09C1842.82,987,1833.68,1005.46,1809.41,1000.46Z" transform="translate(339.03 282.81)"/><path class="cls-12" d="M-328.74,403.78S-116.06,487.23,27.5,284.71,50-45.38-36.08-26c0,0-91.84,67.2,46.72,104.18S412.93-5.56,302.32-282.18" transform="translate(339.03 282.81)"/></g></g></g></svg>