<svg xmlns="http://www.w3.org/2000/svg" viewBox="0 0 199.81 187.63"><defs><style>.cls-1{fill:#48dbfb;}.cls-2{fill:#2e2e2e;}</style></defs><g id="Layer_2" data-name="Layer 2"><g id="Layer_1-2" data-name="Layer 1"><circle class="cls-1" cx="74.24" cy="74.24" r="74.24"/><path class="cls-2" d="M178.93,65.44a5.7,5.7,0,0,0,4-1.67L198.79,48A3.48,3.48,0,0,0,196.55,42l-8.42-.53L193.62,36a2.36,2.36,0,0,0-3.34-3.34l-5.49,5.49-.53-8.42a3.48,3.48,0,0,0-5.93-2.24L162.51,43.31a5.73,5.73,0,0,0-1.66,4.4l.54,8.67A74.49,74.49,0,0,0,58,163.25a2.36,2.36,0,1,0,3.49-3.18,69.8,69.8,0,0,1,99.3-97.94L150,72.9a54.62,54.62,0,0,0-85.51,65.23h0a54.66,54.66,0,0,0,102.13-13.88,2.36,2.36,0,1,0-4.62-1A49.94,49.94,0,0,1,68.73,136h0a49.22,49.22,0,0,1-5.53-22.82,49.9,49.9,0,0,1,83.51-36.91L136,86.91a34.87,34.87,0,1,0,3.34,3.34l10.68-10.68a49.79,49.79,0,0,1,13,33.28,2.36,2.36,0,0,0,2.36,2.35h0a2.37,2.37,0,0,0,2.35-2.38,54.45,54.45,0,0,0-14.41-36.59l10.77-10.77a69.8,69.8,0,0,1-94.9,101.92,2.36,2.36,0,0,0-3,3.67,74.48,74.48,0,0,0,121.33-57.91A73.81,73.81,0,0,0,173,68.78c-1-1.34-2-2.63-3.09-3.89,9.25.58,8.76.55,9.05.55Zm-35.68,47.7a30.15,30.15,0,1,1-10.56-22.88L121.94,101a15.05,15.05,0,1,0,3.34,3.34L136,93.6A29.93,29.93,0,0,1,143.25,113.14Zm-31.78,1.67a2.37,2.37,0,0,0,3.34,0l7.07-7.07a10.17,10.17,0,0,1,1.55,5.4,10.3,10.3,0,1,1-4.88-8.74l-7.08,7.07a2.37,2.37,0,0,0,0,3.34Zm54.09-67.4a1,1,0,0,1,.29-.76l13.87-13.87.62,9.82L166.15,56.79Zm3.93,12.72,14.19-14.19,9.82.62L179.63,60.43a1,1,0,0,1-.76.29Z"/></g></g></svg>