<svg xmlns="http://www.w3.org/2000/svg" viewBox="0 0 593.22 596.9"><defs><style>.cls-1{fill:#5df3ff;}.cls-2{fill:#fff5a8;}.cls-3{fill:#40205c;}.cls-4{fill:#fff;}.cls-5{fill:#64cafd;}.cls-6{fill:#96fafc;}.cls-7{fill:#f3a661;}.cls-8{fill:#3fadfd;}.cls-10,.cls-16,.cls-18,.cls-9{fill:none;}.cls-10,.cls-16,.cls-9{stroke:#000;}.cls-16,.cls-9{stroke-miterlimit:10;}.cls-10,.cls-18{stroke-linecap:round;stroke-linejoin:round;}.cls-10{stroke-width:2px;}.cls-11{fill:#fff5aa;}.cls-12{fill:#e2fef6;}.cls-13{fill:#2e0846;opacity:0.5;}.cls-14{fill:#3e1459;}.cls-15{fill:#facd76;}.cls-16{stroke-width:2.39px;}.cls-17{fill:#f3502e;}.cls-18{stroke:#fff;stroke-width:4.78px;}</style></defs><g id="Layer_2" data-name="Layer 2"><g id="Layer_1-2" data-name="Layer 1"><path class="cls-1" d="M363.57,119l0,0a21.46,21.46,0,0,1-4.84,4c-6.9,4.3-24.42,12-39.08,15.43a72.72,72.72,0,0,1-7.85,1.41c-4.82.57-8.91.35-11.61-1C293,135.3,288,127.18,285,120.06a29.85,29.85,0,0,1-2.67-11.21,12.33,12.33,0,0,1,.74-4.5,4.75,4.75,0,0,1,2.29-2.55c5.5-3,12-4.58,17.91-6.81,6.41-2.43,12.76-5,18.95-8,4.47-2.15,8.92-4.51,13.75-5.64,7.92-1.85,15.07,1,20.58,6.75,9.84,10.37,10.9,18.81,10.9,18.81A15.06,15.06,0,0,1,363.57,119Z"/><path class="cls-2" d="M420.45,152.15c2.85-17.22-2.9-19.21-2.9-19.21-3.32-1.66-9.94-6.86-9.94-6.86-6.73-6-5.69-21.28-5.69-21.28,6.51-11.67,6.81-22,4-27.95-1.86-3.95-5.07-6-8.73-5.24-5.38,1.09-6.59,9.45-6.67,16.2a70.3,70.3,0,0,0,.45,8.78l-5.84,11.56-4.06-9c-.1.36-.21.7-.32,1-1.88,5.5-16.29,18-17.19,18.79l0,0a21.46,21.46,0,0,1-4.84,4c-6.9,4.3-24.42,12-39.08,15.43,2.71,5.57,6.31,10.68,9.84,15.77A166.59,166.59,0,0,0,345,173.74c3.91,4.14,9,7.53,14.9,6.13a15.34,15.34,0,0,0,5.65-2.72c.2-.15,2.14-1.52,2.05-1.83,0,.05,4.67,15.68,6.79,22.79.63,2.1,1,3.46,1,3.46l-9.53,25.88c25.55,6.72,49.17-8.51,49.77-8.9a0,0,0,0,0,0,0C421.13,212.47,427,188.7,427,188.7,414.44,176.68,420.45,152.15,420.45,152.15Zm-87.31,4.18v-3.21l4.7.31,1.1-2.74,14.65-3S340,159.7,333.14,156.33Z"/><path class="cls-3" d="M391,96.59l-5.84,11.56-4.06-9a21,21,0,0,0,.89-6.14q4.51-2.64,8.56-5.25A70.3,70.3,0,0,0,391,96.59Z"/><path class="cls-4" d="M428.61,55.06s-.89,1.21-2.75,3.31a150.68,150.68,0,0,1-19.93,18.48c-1.86-3.95-5.07-6-8.73-5.24-5.38,1.09-6.59,9.45-6.67,16.2q-4,2.61-8.56,5.25c0-5.29-1.92-12.23-8.36-21.33,10.07-4.85,33.08-17.24,46.89-35l.47-.61S428,44.43,428.61,55.06Z"/><path class="cls-2" d="M359,63.48a23,23,0,0,0-10.66,2.69c-24.25,17.08-39.54,21-46.51,21.9.46-2.57,1.55-5.82,4.11-6.26,4.31-.74,34.75-10,46-23.29C351.88,58.52,355.18,61,359,63.48Z"/><path class="cls-5" d="M382,93.06a21,21,0,0,1-.89,6.14c-.1.36-.21.7-.32,1-1.88,5.5-16.29,18-17.19,18.79a15.06,15.06,0,0,0,3.91-12.1s-1.06-8.44-10.9-18.81c-5.51-5.8-12.66-8.6-20.58-6.75-4.83,1.13-9.28,3.49-13.75,5.64-6.19,3-12.54,5.56-18.95,8-5.87,2.23-12.41,3.8-17.91,6.81l10.64-12,1.37-1.54a19.5,19.5,0,0,0,4.41-.15h0c7-.85,22.26-4.82,46.51-21.9A23,23,0,0,1,359,63.48c4.66.05,10.06,1.83,14.48,8l.15.21C380.05,80.83,382,87.77,382,93.06Z"/><path class="cls-3" d="M420.5,36.73c-13.81,17.76-36.82,30.15-46.89,35l-.15-.21c-4.42-6.21-9.82-8-14.48-8-3.8-2.48-7.1-5-7.1-5-11.21,13.31-41.65,22.55-46,23.29-2.56.44-3.65,3.69-4.11,6.26h0a19.5,19.5,0,0,1-4.41.15L296,89.77c-1.85-7.32-5.69-28.57,5.45-48,0,0,17.57-42,66.13-41.76,0,0,13.62-1,20.73,5.9C388.34,6,413.09,4.47,420.5,36.73Z"/><path class="cls-3" d="M592.51,211.69c-5.11,34.95-26.28,47.71-42.62,52.64l-16.7-40.56-5.66-20c-12.59-27.5-51.39-13.18-51.39-13.18l-.06,0c-39,11.67-49.13-2-49.13-2-12.51-12-6.5-36.55-6.5-36.55,2.85-17.22-2.9-19.21-2.9-19.21-3.32-1.66-9.94-6.86-9.94-6.86-6.73-6-5.69-21.28-5.69-21.28,6.51-11.67,6.81-22,4-27.95a150.68,150.68,0,0,0,19.93-18.48c3.11,5.28,10.83,15,27.41,19.84,0,0,58.91-3.25,65.35,50.15,0,0-.92,5.53,15.65,8.06S599.65,162.89,592.51,211.69Z"/><path class="cls-6" d="M375.43,201.57l-9.53,25.88C339.15,281,329.13,415.62,329.13,415.62c-5.08-22.55-7.94-82.26-6.35-101.95s-8.32-46.27-8.32-46.27l37.76-20.85c-13.21-2.72-25.8,4-25.8,4-.15-12.09,8.29-22.74,13.32-28a49.26,49.26,0,0,1,3.63-3.48c21.35-5.66,31-21,31-21C375,200.21,375.43,201.57,375.43,201.57Z"/><path class="cls-7" d="M353.59,147.71s-13.55,12-20.45,8.62v-3.21l4.7.31,1.1-2.74Z"/><path class="cls-3" d="M374.4,198.11s-9.68,15.3-31,21a49.26,49.26,0,0,0-3.63,3.48l-26.64,7.08c-10.9-24.23-6.8-41,1.36-59.92,6-13.89,1.5-24.09-2.7-29.78a72.72,72.72,0,0,0,7.85-1.41c2.71,5.57,6.31,10.68,9.84,15.77A166.59,166.59,0,0,0,345,173.74c3.91,4.14,9,7.53,14.9,6.13a15.34,15.34,0,0,0,5.65-2.72c.2-.15,2.14-1.52,2.05-1.83C367.63,175.37,372.28,191,374.4,198.11Z"/><path class="cls-6" d="M187.74,396.57A37,37,0,0,1,176.22,420l-5.67-15.07s-17.36-11.11-16.61-31.84c8.11,1.95,19.18,5.06,34,10A98.85,98.85,0,0,1,187.74,396.57Z"/><path class="cls-4" d="M330.77,560.19H303.53L296,375.34c-3,9.18-24.95,30.35-24.95,30.35,2.74,6.37,0,9.93,0,9.93-10,13.77-94.86,4.35-94.86,4.35a37,37,0,0,0,11.52-23.4A98.85,98.85,0,0,0,188,383c-2-33.64-22.53-44.47-22.53-44.47,39.27,3.14,42.15,7.68,42.15,7.68h18.77l24.57-24.77c-.27-2.7,2.43-8.91,2.43-8.91,14.3-8.63,43.71-56.39,43.71-56.39.81-15.11,11.6-25.36,11.6-25.36l4.44-1.18,26.64-7.08c-5,5.25-13.47,15.9-13.32,28,0,0,12.59-6.71,25.8-4L314.46,267.4s9.9,26.58,8.32,46.27,1.27,79.4,6.35,101.95C329.13,415.62,325.37,537.2,330.77,560.19Z"/><path class="cls-6" d="M454.23,235.05s-27.64-2.51-32.44,0l31,21.78s-75.88,69.46-113.07,202.23c0,0,5.16-145,75.93-240.51a0,0,0,0,0,0,0C421.13,212.47,427,188.7,427,188.7s10.17,13.62,49.13,2C474.69,191.16,451,200.38,454.23,235.05Z"/><path class="cls-8" d="M415.67,218.55c-70.77,95.53-75.93,240.51-75.93,240.51-3.71,7.94-9,101.13-9,101.13-5.4-23-1.64-144.57-1.64-144.57s10-134.64,36.77-188.17C391.45,234.17,415.07,218.94,415.67,218.55Z"/><path class="cls-4" d="M581.1,416.92S571.22,429.31,562,451c-7,16.3-28.1,53-44.7,63.51a338.44,338.44,0,0,0-7-40c-.5-2.17-1-4.4-1.6-6.71a69,69,0,0,0-7.58-19.43c11.79-8.44,29.64-21.75,28.3-24.1-2-3.5-7.83-.67-7.83-.67l-29.07,15.06a21.43,21.43,0,0,0-11.15-4.23l24.89-38.21-3-8.77h0c4.06-9,1.93-10.25,1.93-10.25s-2.17-2.07-5.51-.08a15.78,15.78,0,0,0-5,5.52c-6,9.75-31.91,49.23-31.91,49.23-7.16,5.47-4.47-3.06-4.47-3.06,3.6-7.4,14.6-48,14.6-48s5.4-20.6,0-22.6-9,5.6-9,5.6-19.14,67-24.37,65.45-1.57-25.57-1.57-25.57,4.74-39-2.25-42.23-8,6.75-8,6.75-1.36,53.75-7.37,72.3-19.61,1.23-19.61,1.23S386.17,417,377,424.39,388.29,447,388.29,447a50.5,50.5,0,0,1,10.28,13.07c5.77,12.39,20.72,30.76,20.72,30.76,21.93,21,41.24,5.64,53.24-10.19,6.56,14,18.44,21.65,30.39,34a8.51,8.51,0,0,0,8.58,2.44l8.38,43.07H330.77s5.26-93.19,9-101.13c37.19-132.77,113.07-202.23,113.07-202.23l-31-21.78c4.8-2.51,32.44,0,32.44,0-3.2-34.67,20.46-43.89,21.85-44.4l.06,0s38.8-14.32,51.39,13.18l5.66,20,16.7,40.56,1.27,3.07s14.8,29.11,14,43.7S574,350.42,574,350.42,591,395.39,581.1,416.92Z"/><path class="cls-6" d="M517.27,514.53a19.09,19.09,0,0,1-5.77,2.59,8.51,8.51,0,0,1-8.58-2.44c-11.95-12.39-23.83-20-30.39-34l37.72-6.16A338.44,338.44,0,0,1,517.27,514.53Z"/><path class="cls-2" d="M510.25,474.48l-37.72,6.16a119.68,119.68,0,0,0,12.88-21.58l5.66-3.69s4.29-2.94,10-7a69,69,0,0,1,7.58,19.43C509.22,470.08,509.75,472.31,510.25,474.48Z"/><path class="cls-9" d="M476.85,434.61c-.46.09-.71.16-.71.16"/><line class="cls-10" x1="499.6" y1="377.08" x2="461.67" y2="267.4"/><path class="cls-11" d="M188,383c-14.84-4.91-25.91-8-34-10-14.49-3.51-19.49-3.35-19.49-3.35-11.78,9.51-46.31,2-46.31,2-3.17,2.1-14.71,3.39-14.71,3.39-4.91,4-14.63,8.36-14.63,8.36L43.71,393.3c-13.32,3.67-8.49-4.61-8.49-4.61L59,370.45l5.77-4.3,7.89-3.26c2.43-2.35-1.37-2.73-1.37-2.73l-12.83,1.21c-7.76,4-21.46,7.76-21.46,7.76s-1.14,1.94-13.93,6.05-10.28-4.45-10.28-4.45l15.76-9.16,17.13-7.06-21.93,3.66-12.44,3.31c-13.59,1-10.74-6.62-10.74-6.62l21.13-8.45,34.36-8.75a9.52,9.52,0,0,1-3.66-3.93L29,333.54a29.89,29.89,0,0,1-15.16,1.06c-12.8-3.07-7.51-8.21-7.51-8.21L23,322.07c9.88-3.2,33.25-4.45,33.25-4.45,7.65,3.48,30.58,3.64,30.58,3.64l48.36,14.54,30.22,2.76S186,349.39,188,383Z"/><path class="cls-12" d="M506.21,396.19,481.32,434.4a17.63,17.63,0,0,0-4.47.21c4.75-8.39,15.84-28,22.63-40,1.6-2.82,2.8-5.19,3.7-7.18Z"/><path class="cls-6" d="M492.47,438.63l-7.73,4c-14.42,4.67-10.15-4-10.15-4l2.26-4a17.63,17.63,0,0,1,4.47-.21A21.43,21.43,0,0,1,492.47,438.63Z"/><path class="cls-13" d="M360.6,343.44C324.76,257.64,232.89,194.08,139,196.19c-33.93.77-64.15,12-87.57,31.65C20.56,253.76,5,294.68,1.18,334c-7.37,77.2,19.87,171.36,80.75,222.4a186.3,186.3,0,0,0,24,16.82c55.08,33.07,123.94,30.72,178.61-2.1C360.74,525.42,394.89,425.46,360.6,343.44ZM301.31,486.89h-3.58L297,480l-1.11,5.19a4.33,4.33,0,0,1-4.24,3.43h-.16v-8.2a7.52,7.52,0,0,1-7.07,4.85,7.35,7.35,0,0,1-2.75-.53c-.69,4.88-1.41,7.79-1.41,7.79-11.81,37-48,57.38-84.77,62.43-53.72,7.34-108.25-17.49-137.24-63.4C34.55,454,22.47,397.13,51.77,359.21c10.2-13.17,10.95-32,10-47.9A94,94,0,0,1,67,274.08c15-41.91,63.45-71.3,106.62-53,22.89,9.7,39.69,29.38,51.11,50.89,8.26,15.56,13.17,33.44,12.45,51.12-.72,18.27-9.26,31.24-19,46a100.53,100.53,0,0,0-6.93,12.17c8.9-9,31.77-25.39,62.73,1.45C314.28,417.59,301.31,486.89,301.31,486.89Z"/><path class="cls-14" d="M336.67,350.75c-30.9-74-110.11-128.76-191.1-126.95-29.25.67-55.3,10.33-75.5,27.3-26.57,22.34-40,57.62-43.28,91.51-6.36,66.55,17.14,147.74,69.62,191.74a161.16,161.16,0,0,0,20.72,14.51c47.49,28.51,106.85,26.48,154-1.82C336.79,507.65,366.23,421.47,336.67,350.75ZM285.55,474.43h-3.09l-.62-6-.95,4.47a3.74,3.74,0,0,1-3.66,3h-.14v-7.07A6.48,6.48,0,0,1,271,473a6.26,6.26,0,0,1-2.36-.45c-.6,4.2-1.22,6.71-1.22,6.71-10.18,31.93-41.42,49.47-73.09,53.82C148,539.42,101,518,76,478.42c-20.44-32.33-30.86-81.37-5.59-114.07C79.2,353,79.85,336.8,79,323.06A81.13,81.13,0,0,1,83.57,291c12.91-36.14,54.71-61.47,91.92-45.7,19.74,8.37,34.22,25.34,44.07,43.88,7.12,13.41,11.35,28.83,10.73,44.07-.62,15.75-8,26.94-16.37,39.7a85.22,85.22,0,0,0-6,10.49c7.67-7.74,27.38-21.89,54.08,1.24C296.73,414.69,285.55,474.43,285.55,474.43Z"/><path class="cls-15" d="M285.55,474.43h-3.09l-.62-6-.95,4.47a3.74,3.74,0,0,1-3.66,3h-.14v-7.07A6.48,6.48,0,0,1,271,473a6.26,6.26,0,0,1-2.36-.45c-.6,4.2-1.22,6.71-1.22,6.71-10.18,31.93-41.42,49.47-73.09,53.82C148,539.42,101,518,76,478.42c-20.44-32.33-30.86-81.37-5.59-114.07C79.2,353,79.85,336.8,79,323.06A81.13,81.13,0,0,1,83.57,291c12.91-36.14,54.71-61.47,91.92-45.7,19.74,8.37,34.22,25.34,44.07,43.88,7.12,13.41,11.35,28.83,10.73,44.07-.62,15.75-8,26.94-16.37,39.7a85.22,85.22,0,0,0-6,10.49c7.67-7.74,27.38-21.89,54.08,1.24C296.73,414.69,285.55,474.43,285.55,474.43Z"/><path class="cls-16" d="M264.63,470l2.73,1.84a6.46,6.46,0,0,0,1.27.67"/><path class="cls-16" d="M208,383.4a35.07,35.07,0,0,0-3.52,4.06"/><path class="cls-17" d="M150.76,451.62s-.94-24.65,20.32-17.5c0,0,13,2.82,7.15,24.08s-4.9,23.89-4.9,23.89-46.44,19.23-63.77-5.58S143,447.2,150.76,451.62Z"/><path class="cls-16" d="M85.05,417s8.3,28,48.21,19.95c0,0,24.3-5.72,21.33-18.17s-33-4.74-33-4.74"/><path class="cls-16" d="M260.88,417.51c10.95,19.76,9.37,43.61,7.75,55"/><path class="cls-16" d="M102,333.48c-2.6-4.59-8.89-12.53-14.63-7.72-4.39,3.7-5.66,9.7-6.14,15.15a34.57,34.57,0,0,0,.53,9.63,36,36,0,0,0,1.67,6.17,6.62,6.62,0,0,0,3.51,3.89,6.29,6.29,0,0,0,5.53-1,37,37,0,0,0,4.27-3.92c-1.45,7.55.07,15.94,3,22.94,4.78,11.59,14.07,20.58,24.71,26.89.48.31,1,.6,1.48.86,16.54,9.39,37.95,13.93,56.26,7.22a40.08,40.08,0,0,0,15.56-10.21c5-5.35,6.55-11.61,9.37-18.14.26-.62.55-1.24.86-1.84"/><path class="cls-16" d="M91.58,331.9s4.84,5,1.16,18"/><path class="cls-16" d="M139.92,365.32s.17,11.58,21.62,7.66"/><path class="cls-16" d="M195.57,377.41s7.32,4.93,12.09,1.87"/><line class="cls-18" x1="101.48" y1="454.1" x2="90.06" y2="442.45"/><line class="cls-18" x1="83.47" y1="473.17" x2="98.61" y2="469.46"/><line class="cls-18" x1="93.51" y1="493.57" x2="103.55" y2="484.6"/><path class="cls-2" d="M501.07,448.34c-5.71,4.09-10,7-10,7l-5.66,3.69a119.68,119.68,0,0,1-12.88,21.58c-12,15.83-31.31,31.22-53.24,10.19,0,0-15-18.37-20.72-30.76A50.5,50.5,0,0,0,388.29,447s-20.5-15.19-11.31-22.61,23.67,17.31,23.67,17.31,13.6,17.32,19.61-1.23,7.37-72.3,7.37-72.3,1-10,8-6.75,2.25,42.23,2.25,42.23-3.66,24,1.57,25.57,24.37-65.45,24.37-65.45,3.6-7.6,9-5.6,0,22.6,0,22.6-11,40.6-14.6,48c0,0-2.69,8.53,4.47,3.06,0,0,25.91-39.48,31.91-49.23a15.78,15.78,0,0,1,5-5.52c3.34-2,5.51.08,5.51.08s2.13,1.26-1.93,10.25h0c-.9,2-2.1,4.36-3.7,7.18-6.79,12-17.88,31.62-22.63,40l-2.26,4s-4.27,8.68,10.15,4l7.73-4,29.07-15.06s5.83-2.83,7.83.67C530.71,426.59,512.86,439.9,501.07,448.34Z"/><path class="cls-10" d="M438.2,365.59s3.93,29.3-1.48,50"/><path class="cls-10" d="M475,368.7s-8.92,42.52-14.11,52.89"/><line class="cls-10" x1="481.32" y1="434.4" x2="506.21" y2="396.19"/><path class="cls-10" d="M566,322.24s5,19.1,8,28.18,16.39,47.69,7.11,66.5"/><path class="cls-10" d="M430.49,64.59S439.81,79.75,466.12,79c0,0,43.1,1.19,51.72,44.45"/><path class="cls-10" d="M339.74,222.55l-31.08,8.26s-12,10.49-11.6,25.36"/></g></g></svg>